<?xml version="1.0" ?><!DOCTYPE svg  PUBLIC '-//W3C//DTD SVG 1.1//EN'  'http://www.w3.org/Graphics/SVG/1.1/DTD/svg11.dtd'><svg enable-background="new 0 0 70 70" id="Layer_1" version="1.1" viewBox="0 0 70 70" xml:space="preserve" xmlns="http://www.w3.org/2000/svg" xmlns:xlink="http://www.w3.org/1999/xlink"><g><path d="M34.7158203,34.1386719c-0.1474609,0-0.2929688-0.0078125-0.4384766-0.0244141   c-1.8505859-0.2084961-3.2197266-1.7089844-4.1259766-2.7021484c-0.9570313-1.0493164-1.8876953-2.1962891-1.8466797-3.6606445   c0.0341797-1.1489258,0.65625-2.0712891,1.3466797-2.9931641c3.3349609-4.456543,6.8710938-8.8505859,10.5097656-13.0605469   c1.0751953-1.2451172,2.2646484-2.4833984,3.9238281-2.7587891c1.8251953-0.3061523,3.4638672,0.668457,4.9873047,1.690918   c1.46875,0.984375,2.8300781,2.0039063,3.3320313,3.6328125c0.5292969,1.7197266-0.1269531,3.7871094-1.7548828,5.5302734   c-0.4882813,0.5219727-0.8886719,0.9233398-1.2685547,1.3037109c-0.5683594,0.5703125-1.0605469,1.0629883-1.734375,1.8457031   c-0.2714844,0.3149414-0.7451172,0.3481445-1.0576172,0.0791016c-0.3144531-0.2705078-0.3496094-0.7441406-0.0791016-1.0576172   c0.7099609-0.824707,1.2441406-1.3598633,1.8095703-1.9267578c0.3691406-0.3701172,0.7597656-0.7607422,1.234375-1.2685547   c0.4707031-0.5039063,1.9648438-2.2866211,1.4169922-4.0644531c-0.3574219-1.159668-1.4970703-1.9995117-2.734375-2.8286133   c-1.3251953-0.8896484-2.6230469-1.6669922-3.9052734-1.4570313c-1.1669922,0.1938477-2.1015625,1.1796875-3.0351563,2.2597656   c-3.6162109,4.1835938-7.1298828,8.550293-10.4433594,12.9790039c-0.5615234,0.7495117-1.0273438,1.4272461-1.0478516,2.137207   c-0.0253906,0.9057617,0.6728516,1.75,1.4550781,2.6069336c0.9980469,1.0942383,1.9931641,2.0878906,3.1855469,2.2226563   c0.7705078,0.0834961,1.6748047-0.2231445,2.46875-0.8510742c0.7802734-0.6171875,1.4160156-1.4672852,2.0302734-2.2895508   c0.2470703-0.3320313,0.7177734-0.4013672,1.0498047-0.1513672c0.3320313,0.2475586,0.3994141,0.7177734,0.1513672,1.0498047   c-0.671875,0.8989258-1.3671875,1.8286133-2.3017578,2.5678711C36.8632813,33.7250977,35.7675781,34.1386719,34.7158203,34.1386719   z" fill="#rgb(55, 114, 183)"/><path d="M30.8251953,37.9658203c-0.5683594,0-1.0244141-0.2949219-1.3330078-0.4941406l-2.7724609-1.7910156   c-0.2958984-0.190918-0.9892578-0.6386719-1.0458984-1.4282227c-0.0449219-0.6074219,0.3222656-1.0776367,0.5195313-1.3300781   l2.6005859-3.3291016c0.2529297-0.3271484,0.7226563-0.3862305,1.0527344-0.1298828   c0.3261719,0.2548828,0.3837891,0.7260742,0.1289063,1.0527344L27.375,33.8457031   c-0.046875,0.0600586-0.1914063,0.2451172-0.2060547,0.3173828c0.0185547-0.0097656,0.0800781,0.0742188,0.3642578,0.2573242   l2.7724609,1.7910156c0.1513672,0.0981445,0.3955078,0.2353516,0.5292969,0.2543945   c0.15625-0.0107422,0.4316406-0.3330078,0.5498047-0.4702148l2.3398438-2.7363281   c0.2705078-0.3154297,0.7431641-0.3505859,1.0576172-0.0825195c0.3144531,0.269043,0.3515625,0.7421875,0.0830078,1.0571289   l-2.3408203,2.7373047c-0.2822266,0.328125-0.8046875,0.9375-1.5878906,0.9907227   C30.8994141,37.9648438,30.8623047,37.9658203,30.8251953,37.9658203z" fill="#rgb(55, 114, 183)"/><path d="M51.21875,14.078125c-0.1699219,0-0.3398438-0.0571289-0.4804688-0.1738281   c-0.3183594-0.265625-0.3603516-0.7382813-0.0957031-1.0566406c0.4853516-0.5810547,0.9326172-1.0888672,1.3798828-1.5966797   c0.4375-0.4960938,0.875-0.9916992,1.3476563-1.559082c0.1220703-0.1464844,0.4462891-0.5351563,0.4130859-0.7260742   c-0.0273438-0.1577148-0.3476563-0.3999023-0.5009766-0.5166016l-1.8203125-1.3818359   c-0.1787109-0.1357422-0.6523438-0.496582-0.8876953-0.4267578c-0.1220703,0.0356445-0.3027344,0.2250977-0.4335938,0.3637695   l-3.0712891,3.2392578c-0.2851563,0.3012695-0.7607422,0.3120117-1.0595703,0.0288086   c-0.3007813-0.2851563-0.3134766-0.7597656-0.0283203-1.0600586l3.0712891-3.2402344   c0.2490234-0.2626953,0.5888672-0.6210938,1.0996094-0.7714844c0.9677734-0.2797852,1.8085938,0.362793,2.2158203,0.671875   l1.8203125,1.3818359c0.3525391,0.2666016,0.9414063,0.7138672,1.0722656,1.4521484   c0.1533203,0.8774414-0.4267578,1.5727539-0.7382813,1.9462891c-0.4833984,0.5786133-0.9287109,1.0844727-1.375,1.590332   c-0.4384766,0.4975586-0.8779297,0.9956055-1.3525391,1.5654297C51.6464844,13.9863281,51.4335938,14.078125,51.21875,14.078125z" fill="#rgb(55, 114, 183)"/><path d="M45.2958984,34.53125L45.2958984,34.53125c-0.5722656-0.0004883-1.1337891-0.0742188-1.6708984-0.2202148   c-1.9335938-0.5258789-3.5703125-1.9804688-4.2714844-3.7963867c-0.7314453-1.894043-0.4140625-4.1235352,0.8085938-5.6806641   c1.0488281-1.3369141,1.6386719-1.625,2.9296875-2.2553711l0.2314453-0.1132813   c1.7363281-0.8525391,3.7685547-0.9291992,5.3388672-0.1777344c1.15625,0.5537109,2.1171875,1.550293,2.7060547,2.8071289   c1.0771484,2.2949219,0.7050781,5.1411133-0.9257813,7.0825195C49.2041016,33.6508789,47.2802734,34.53125,45.2958984,34.53125z    M46.2783203,23.2646484c-0.7714844,0-1.5644531,0.1894531-2.2949219,0.5473633L43.75,23.9262695   c-1.2382813,0.6049805-1.5712891,0.7675781-2.4082031,1.8339844c-0.9023438,1.1494141-1.1337891,2.8032227-0.5888672,4.2138672   c0.5322266,1.3798828,1.7832031,2.4868164,3.265625,2.8896484c0.4082031,0.1108398,0.8378906,0.1669922,1.2773438,0.1674805l0,0   c1.546875,0,3.0410156-0.6801758,3.9980469-1.8188477c1.2421875-1.4785156,1.5371094-3.7324219,0.7167969-5.4804688   c-0.4433594-0.9443359-1.1523438-1.6870117-1.9970703-2.0917969   C47.4941406,23.3911133,46.9101563,23.2646484,46.2783203,23.2646484z" fill="#rgb(55, 114, 183)"/><path d="M40.1933594,50.2592773c-0.2822266,0-0.5527344-0.159668-0.6796875-0.4316406   c-0.1757813-0.375-0.0146484-0.8217773,0.3603516-0.9975586c2.5263672-1.184082,4.5820313-3.34375,5.6396484-5.9248047   c1.0595703-2.581543,1.1113281-5.5625,0.1435547-8.1791992c-0.1435547-0.3886719,0.0546875-0.8198242,0.4423828-0.9638672   c0.3876953-0.1416016,0.8212891,0.0546875,0.9638672,0.4433594c1.0976563,2.965332,1.0390625,6.34375-0.1611328,9.269043   c-1.1992188,2.9243164-3.5283203,5.371582-6.3916016,6.7138672C40.4082031,50.2368164,40.2998047,50.2592773,40.1933594,50.2592773   z" fill="#rgb(55, 114, 183)"/><path d="M42.2070313,53.6040039c-0.2578125,0-0.5078125-0.1323242-0.6474609-0.3701172   c-0.2099609-0.3574219-0.0908203-0.8168945,0.2666016-1.0268555c1.9511719-1.1455078,4.1621094-2.4438477,5.5742188-4.3286133   c1.2998047-1.7338867,1.9023438-3.9389648,2.28125-5.6665039c0.4257813-1.9482422,0.5917969-3.4414063,0.5380859-4.840332   c-0.0664063-1.7060547-0.4970703-3.2504883-1.2460938-4.4672852c-0.2167969-0.3525391-0.1074219-0.8144531,0.2451172-1.0317383   c0.3544922-0.2182617,0.8144531-0.1069336,1.0322266,0.2456055c0.8837891,1.4355469,1.3916016,3.2324219,1.4667969,5.1958008   c0.0595703,1.5307617-0.1162109,3.140625-0.5712891,5.21875c-0.4111328,1.8759766-1.0732422,4.2807617-2.5449219,6.2451172   c-1.59375,2.1264648-3.9433594,3.5058594-6.015625,4.7231445C42.4667969,53.5708008,42.3359375,53.6040039,42.2070313,53.6040039z" fill="#rgb(55, 114, 183)"/><path d="M34.1054688,66.3422852c-0.0009766,0-0.0009766,0-0.0019531,0   c-5.4599609,0-10.9306641-0.0737305-14.5585938-0.1352539c-1.1132813-0.019043-2.4980469-0.0429688-3.6757813-0.7568359   c-1.0195313-0.6176758-1.5361328-1.7641602-1.5361328-3.4086914c0.0009766-1.6450195,0.5195313-2.734375,1.5839844-3.331543   c1.0087891-0.5654297,2.1572266-0.612793,3.1552734-0.612793L19.375,58.0981445l30.2675781,0.1992188   c0.6240234,0.0043945,1.3320313,0.0087891,2.0185547,0.2910156c1.0712891,0.4414063,1.8779297,1.5043945,2.1572266,2.84375   c0.1884766,0.9008789,0.5820313,2.7758789-0.4794922,3.7460938C52.8955078,65.5849609,52.0664063,66.3422852,34.1054688,66.3422852   z M19.0722656,59.597168c-0.8447266,0-1.7275391,0.0322266-2.4208984,0.4213867   c-0.3505859,0.1962891-0.8173828,0.6201172-0.8183594,2.0234375c0,1.0981445,0.265625,1.793457,0.8134766,2.125   c0.7705078,0.4667969,1.7382813,0.5195313,2.9238281,0.5400391c3.6220703,0.0620117,9.0830078,0.1352539,14.5332031,0.1352539   c15.6474609,0.0004883,17.9375-0.6157227,18.2666016-0.8046875c0.2421875-0.2265625,0.25-1.0112305-0.0205078-2.2983398   c-0.1367188-0.6586914-0.5400391-1.4672852-1.2587891-1.7636719c-0.4169922-0.1713867-0.9462891-0.1748047-1.4580078-0.1782227   L19.0722656,59.597168z" fill="#rgb(55, 114, 183)"/><path d="M45.1113281,59.6601563c-0.2861328,0-0.5595703-0.1650391-0.6845703-0.4433594   c-1.1982422-2.675293-2.6630859-5.2416992-4.3544922-7.6274414c-0.5126953-0.7241211-1.0761719-1.4643555-1.8095703-1.8623047   c-0.5898438-0.3193359-1.3027344-0.4287109-2.0576172-0.5449219c-0.3320313-0.0512695-0.6640625-0.1025391-0.9892578-0.1708984   c-2.5878906-0.5415039-4.4746094-2.3847656-6.2998047-4.1674805l-0.3144531-0.3061523   c-1.6484375-1.6044922-3.4492188-3.2197266-5.6669922-5.0830078c-0.7763672-0.652832-1.8154297-1.4140625-2.9658203-1.5083008   c-0.890625-0.074707-1.9775391,0.4326172-2.1464844,1.3056641c-0.1572266,0.8061523,0.4824219,1.6669922,0.8769531,2.1088867   c1.1708984,1.309082,2.7255859,2.2119141,4.3720703,3.1679688c2.0068359,1.1655273,4.0820313,2.3706055,5.4189453,4.3857422   c1.9736328,2.9785156,1.7060547,6.8803711,1.5107422,9.7290039c-0.0292969,0.4140625-0.4013672,0.7338867-0.7998047,0.6967773   c-0.4130859-0.0283203-0.7246094-0.3862305-0.6962891-0.7993164c0.234375-3.4160156,0.3007813-6.4355469-1.2646484-8.7973633   c-1.1425781-1.7231445-2.9785156-2.7890625-4.921875-3.9179688c-1.6748047-0.9726563-3.4072266-1.9785156-4.7363281-3.4648438   c-1.0175781-1.1367188-1.4443359-2.3110352-1.2324219-3.3955078c0.3320313-1.7143555,2.1845703-2.6396484,3.7421875-2.5141602   c1.5722656,0.1289063,2.8603516,1.059082,3.8076172,1.8549805c2.2460938,1.8876953,4.0732422,3.5258789,5.7490234,5.15625   l0.3154297,0.3085938c1.671875,1.6323242,3.3994141,3.3203125,5.5585938,3.7724609   c0.2998047,0.0625,0.6054688,0.1088867,0.9101563,0.15625c0.8486328,0.1303711,1.7255859,0.2651367,2.5449219,0.7084961   c1.0166016,0.5517578,1.7304688,1.4833984,2.3183594,2.3139648c1.7480469,2.465332,3.2617188,5.1171875,4.5,7.8813477   c0.1689453,0.3779297,0,0.8217773-0.3779297,0.9912109C45.3183594,59.6391602,45.2138672,59.6601563,45.1113281,59.6601563z" fill="#rgb(55, 114, 183)"/><path d="M18.9023438,55.6748047c-1.7353516,0-3.2666016-1.0200195-3.7216797-2.4794922   c-0.2539063-0.8085938-0.1337891-1.6513672,0.3203125-2.2543945c0.5537109-0.7363281,1.4599609-0.9599609,2.0595703-1.1074219   l3.1572266-0.7788086c0.4873047-0.1201172,1.0390625-0.2563477,1.6240234-0.2563477l0.1708984,0.0039063   c0.8173828,0.0371094,1.5351563,0.3789063,1.9677734,0.9370117c0.5712891,0.7373047,0.6152344,1.8564453,0.109375,2.7841797   c-0.4189453,0.7705078-1.0996094,1.2949219-1.7089844,1.706543c-1.4345703,0.9697266-2.7333984,1.4423828-3.9707031,1.4448242   H18.9023438z M22.3417969,50.2983398c-0.4023438,0-0.8408203,0.1079102-1.2646484,0.2124023l-3.1572266,0.7788086   c-0.5205078,0.128418-1.0048828,0.2670898-1.2207031,0.5537109c-0.1591797,0.2114258-0.1933594,0.565918-0.0869141,0.9038086   c0.2890625,0.9277344,1.3955078,1.4277344,2.2910156,1.4277344l-0.0009766,0.75l0.0058594-0.75   c0.9287109-0.0019531,1.953125-0.3901367,3.1328125-1.1875c0.4599609-0.3110352,0.9667969-0.6943359,1.2324219-1.1816406   c0.2177734-0.3999023,0.2265625-0.8828125,0.0214844-1.1474609c-0.1601563-0.2070313-0.4785156-0.3408203-0.8515625-0.3579102   L22.3417969,50.2983398z" fill="#rgb(55, 114, 183)"/><path d="M28.6904297,53.7167969c-0.0175781,0-0.0341797-0.0004883-0.0517578-0.0019531l-4.7490234-0.3237305   c-0.4130859-0.027832-0.7255859-0.3857422-0.6972656-0.7988281c0.0273438-0.4140625,0.3974609-0.7324219,0.7988281-0.6972656   l4.7490234,0.3237305c0.4130859,0.027832,0.7255859,0.3857422,0.6972656,0.7988281   C29.4111328,53.4135742,29.0810547,53.7167969,28.6904297,53.7167969z" fill="#rgb(55, 114, 183)"/><path d="M45.4804688,31.105957L45.4804688,31.105957c-0.96875,0-1.8515625-0.4365234-2.3623047-1.1674805   c-0.6806641-0.9746094-0.5390625-2.3730469,0.3144531-3.1176758c0.4326172-0.3759766,1.0253906-0.5883789,1.7148438-0.6147461   l0.1445313-0.0024414c0.7324219,0,1.3945313,0.2050781,1.9130859,0.5932617   c0.6865234,0.512207,1.0644531,1.324707,0.984375,2.1201172c-0.0576172,0.5737305-0.3574219,1.1289063-0.8212891,1.5244141   c-0.4003906,0.3393555-0.9091797,0.5595703-1.4736328,0.6367188C45.7578125,31.0966797,45.6201172,31.105957,45.4804688,31.105957z    M45.2919922,27.7036133c-0.4267578,0.0141602-0.7060547,0.1020508-0.8740234,0.2485352   c-0.2783203,0.2426758-0.3125,0.7807617-0.0693359,1.1279297c0.2607422,0.3735352,0.8085938,0.590332,1.3417969,0.5117188   c0.2773438-0.0375977,0.5273438-0.1420898,0.7060547-0.293457c0.1689453-0.144043,0.28125-0.3427734,0.3007813-0.53125   c0.0263672-0.265625-0.1298828-0.574707-0.3896484-0.7685547C46.0527344,27.8081055,45.6923828,27.7036133,45.2919922,27.7036133z" fill="#rgb(55, 114, 183)"/><path d="M31.6191406,59.4223633c-0.1347656,0-0.2714844-0.0361328-0.3945313-0.112793   c-0.3515625-0.2182617-0.4599609-0.6806641-0.2421875-1.0327148l1.3398438-2.1582031   c0.21875-0.3510742,0.6806641-0.4619141,1.0332031-0.2416992c0.3515625,0.2182617,0.4599609,0.6806641,0.2421875,1.0327148   l-1.3398438,2.1582031C32.1152344,59.2963867,31.8701172,59.4223633,31.6191406,59.4223633z" fill="#rgb(55, 114, 183)"/><path d="M35.2666016,59.5473633c-0.1855469,0-0.3701172-0.0678711-0.515625-0.2050781   c-0.3007813-0.284668-0.3134766-0.7597656-0.0292969-1.0605469c0.6035156-0.637207,1.1015625-1.3608398,1.4814453-2.1508789   c0.1787109-0.3730469,0.6230469-0.5322266,1.0009766-0.3510742c0.3730469,0.1791992,0.5302734,0.6274414,0.3505859,1.0004883   c-0.4472656,0.9306641-1.0332031,1.7827148-1.7431641,2.5327148C35.6640625,59.46875,35.4658203,59.5473633,35.2666016,59.5473633z   " fill="#rgb(55, 114, 183)"/><path d="M38.7539063,59.409668c-0.1923828,0-0.3857422-0.0737305-0.5322266-0.2211914   c-0.2919922-0.2939453-0.2900391-0.7685547,0.0039063-1.0605469c0.5507813-0.5478516,1.0292969-1.1674805,1.4238281-1.8413086   c0.2089844-0.3579102,0.6669922-0.4780273,1.0263672-0.269043c0.3574219,0.2089844,0.4775391,0.668457,0.2685547,1.0258789   c-0.4599609,0.7861328-1.0185547,1.5087891-1.6621094,2.1479492C39.1367188,59.3369141,38.9453125,59.409668,38.7539063,59.409668z   " fill="#rgb(55, 114, 183)"/><path d="M32.0058594,28.0283203c-0.1738281,0-0.3486328-0.0600586-0.4902344-0.1821289   c-0.3134766-0.2705078-0.3486328-0.7441406-0.078125-1.0576172l12.0556641-13.9750977   c0.2714844-0.3139648,0.7460938-0.3476563,1.0585938-0.078125c0.3134766,0.2705078,0.3486328,0.7441406,0.078125,1.0576172   L32.5742188,27.7680664C32.4257813,27.9399414,32.2158203,28.0283203,32.0058594,28.0283203z" fill="#rgb(55, 114, 183)"/></g></svg>