<?xml version="1.0" ?><!DOCTYPE svg  PUBLIC '-//W3C//DTD SVG 1.1//EN'  'http://www.w3.org/Graphics/SVG/1.1/DTD/svg11.dtd'><svg enable-background="new 0 0 64 64" height="64px" id="Layer_1" version="1.1" viewBox="0 0 64 64" width="64px" xml:space="preserve" xmlns="http://www.w3.org/2000/svg" xmlns:xlink="http://www.w3.org/1999/xlink"><g id="projector"><path d="M42,32c-1.657,0-3,1.343-3,3s1.343,3,3,3s3-1.343,3-3S43.657,32,42,32z M42,36c-0.552,0-1-0.448-1-1   s0.448-1,1-1s1,0.448,1,1S42.552,36,42,36z" fill="#37474F"/><g><rect fill="#37474F" height="1" width="17" x="6" y="41"/><rect fill="#37474F" height="1" width="17" x="6" y="39"/><rect fill="#37474F" height="1" width="17" x="6" y="37"/><rect fill="#37474F" height="1" width="17" x="6" y="35"/><rect fill="#37474F" height="1" width="17" x="6" y="33"/><rect fill="#37474F" height="1" width="17" x="6" y="31"/><rect fill="#37474F" height="1" width="17" x="6" y="29"/><path d="M59,24H46.778C45.313,23.362,43.7,23,42,23s-3.313,0.362-4.777,1H5c-1.654,0-3,1.346-3,3v16    c0,1.654,1.346,3,3,3h1v2h3v-2h28.223c1.464,0.638,3.077,1,4.777,1s3.313-0.362,4.778-1H55v2h3v-2h1c1.654,0,3-1.346,3-3V27    C62,25.346,60.654,24,59,24z M5,44c-0.552,0-1-0.449-1-1V27c0-0.551,0.448-1,1-1h30.687C32.854,27.99,31,31.275,31,35    s1.854,7.01,4.687,9H5z M42,45c-5.524,0-10-4.477-10-10s4.476-10,10-10s10,4.477,10,10S47.524,45,42,45z M60,43    c0,0.551-0.448,1-1,1H48.313C51.146,42.01,53,38.725,53,35s-1.854-7.01-4.687-9H59c0.552,0,1,0.449,1,1V43z" fill="#37474F"/><path d="M42,28c-3.867,0-7,3.135-7,7s3.133,7,7,7s7-3.135,7-7S45.867,28,42,28z M42,41c-3.314,0-6-2.687-6-6    s2.686-6,6-6s6,2.687,6,6S45.314,41,42,41z" fill="#37474F"/><path d="M57,27c-1.104,0-2,0.896-2,2s0.896,2,2,2s2-0.896,2-2S58.104,27,57,27z M57,30c-0.552,0-1-0.448-1-1    s0.448-1,1-1s1,0.448,1,1S57.552,30,57,30z" fill="#37474F"/></g></g></svg>