<?xml version="1.0" ?><!DOCTYPE svg  PUBLIC '-//W3C//DTD SVG 1.1//EN'  'http://www.w3.org/Graphics/SVG/1.1/DTD/svg11.dtd'><svg enable-background="new 1 1 128 128" height="128px" id="icon" version="1.1" viewBox="1 1 128 128" width="128px" xml:space="preserve" xmlns="http://www.w3.org/2000/svg" xmlns:xlink="http://www.w3.org/1999/xlink"><g><path d="M118.1,96.855c0,6.314-5.977,11.344-12.35,11.344   H23.53c-6.374,0-11.63-5.029-11.63-11.344V46.825c0-6.315,5.256-10.625,11.63-10.625h82.22c6.373,0,12.35,4.31,12.35,10.625V96.855   z" fill="none" stroke="#3262F9" stroke-miterlimit="10" stroke-width="2"/><line fill="none" stroke="#3262F9" stroke-miterlimit="10" stroke-width="2" x1="11.9" x2="117.9" y1="95.6" y2="95.6"/><path d="M84.779,36.2c0.063,0,0.111-0.979,0.111-1.53   c0-7.158-5.803-12.869-12.961-12.869H55.731c-7.157,0-12.959,5.711-12.959,12.869c0,0.552,0.045,1.53,0.113,1.53H84.779z" fill="none" stroke="#3262F9" stroke-miterlimit="10" stroke-width="2"/><path d="M102.711,36.2H26.57   c-7.158,0-14.67,3.373-14.67,10.53v11.34c0,7.158,5.713,14.129,12.87,14.129h24.521c-0.022-1.799-0.041-1.074-0.041-1.35   c0-4.922,3.99-9.45,8.91-9.45H69.5c4.918,0,8.91,4.528,8.91,9.45c0,0.275-0.02-0.449-0.039,1.35h26.139   c7.156,0,13.59-6.971,13.59-14.129V46.73C118.1,39.573,109.867,36.2,102.711,36.2z" fill="none" stroke="#3262F9" stroke-miterlimit="10" stroke-width="2"/><path d="M78.41,70.4c0,4.918-3.625,9-8.1,9h-12.96   c-4.473,0-8.1-4.082-8.1-9l0,0c0-4.918,3.627-9,8.1-9h12.96C74.785,61.4,78.41,65.482,78.41,70.4L78.41,70.4z" fill="none" stroke="#3262F9" stroke-miterlimit="10" stroke-width="2"/></g></svg>