<?xml version="1.0" encoding="UTF-8"?>
<svg viewBox="0 0 18 19" version="1.1" xmlns="http://www.w3.org/2000/svg" xmlns:xlink="http://www.w3.org/1999/xlink">
    <g id="in" stroke="none" stroke-width="1" fill="none" fill-rule="evenodd">
        <g id="icon-social-linkedin" fill-rule="nonzero" fill="#FFFFFF">
            <path d="M17.7506836,18.1522383 L14.1271992,18.1522383 L14.1271992,12.4759766 C14.1271992,11.1239922 14.0992266,9.38170312 12.2416016,9.38170312 C10.3549102,9.38170312 10.0670898,10.8565977 10.0670898,12.3789062 L10.0670898,18.1522383 L6.44139063,18.1522383 L6.44139063,6.48266406 L9.91989844,6.48266406 L9.91989844,8.0771875 L9.96947266,8.0771875 C10.4546055,7.15969531 11.6378516,6.19262891 13.4005664,6.19262891 C17.0715469,6.19262891 17.7506836,8.60864062 17.7506836,11.7513945 L17.7506836,18.1522383 L17.7506836,18.1522383 Z M4.45445703,2.78570703 C4.45445703,3.94579297 3.51271094,4.88699219 2.35213281,4.88699219 C1.19100781,4.88699219 0.250328125,3.94579297 0.250328125,2.78570703 C0.250328125,1.62354297 1.19100781,0.681222656 2.35213281,0.681222656 C3.51268359,0.681222656 4.45445703,1.62354297 4.45445703,2.78570703 L4.45445703,2.78570703 Z M0.538257813,6.48266406 L4.16603516,6.48266406 L4.16603516,18.1522109 L0.538257813,18.1522109 L0.538257813,6.48266406 Z" id="Shape"></path>
        </g>
    </g>
</svg>