<?xml version="1.0" encoding="utf-8"?>
<!-- Generator: Adobe Illustrator 19.2.0, SVG Export Plug-In . SVG Version: 6.00 Build 0)  -->
<svg version="1.1" id="Layer_1" xmlns="http://www.w3.org/2000/svg" xmlns:xlink="http://www.w3.org/1999/xlink" x="0px" y="0px"
	 viewBox="0 0 95 70" style="enable-background:new 0 0 95 70;" xml:space="preserve">
<style type="text/css">
	.st0{fill:#000000;}
</style>
<g id="logo_1_">
	<path id="logo" class="st0" d="M51.5,6.1c-0.2,0.2-0.4,0.3-0.6,0.5c-2.5,2.3-3.8,5.2-3.8,8.9c0,2.4,0.7,4.6,2,6.5
		c1.3,1.9,3.6,3.8,6.8,5.7l5,3.1c4.1,2.5,6.1,5.2,6.1,8c0,1.7-0.7,3.2-2.1,4.4c-1.4,1.2-3.1,1.7-5.2,1.7c-4.7,0-8.9-2.3-12.5-6.8
		v8.4c3.8,2.8,7.9,4.2,12.5,4.2c0.9,0,1.7-0.1,2.5-0.2c-0.7,0.3-1.4,0.5-2.1,0.7c-3.4,1-7.3,1.5-11.7,1.5h-13V6h13
		C49.6,6,50.5,6,51.5,6.1z M69,11.9c2.3,2,4.1,4.4,5.4,7.3c1.2,2.9,1.9,6.3,1.9,10.1s-0.6,7.2-1.9,10.1c-0.5,1.3-1.2,2.4-1.9,3.5
		c0.6-1.5,0.8-3.1,0.8-4.8c0-5.2-2.8-9.5-8.5-12.9l-5.1-3c-2.3-1.3-3.9-2.6-4.9-3.8c-1-1.2-1.5-2.5-1.5-3.9c0-1.6,0.7-2.9,2.1-3.9
		c1.4-1,3.2-1.5,5.3-1.5C63.6,9.1,66.4,10.1,69,11.9z M24,6h5.5v52.8h42.9v5.6H24V6z"/>
</g>
</svg>
