<?xml version="1.0" encoding="UTF-8"?>
<svg viewBox="0 0 1061 965" version="1.1" xmlns="http://www.w3.org/2000/svg" xmlns:xlink="http://www.w3.org/1999/xlink">
    <g id="Logo" stroke="none" stroke-width="1" fill="none" fill-rule="evenodd">
        <g id="LDS" transform="translate(0.000000, 10.000000)">
            <path d="M57.0153846,954 L35.0461538,954 L35.0461538,949.8 C35.0461538,948.184607 36.5538311,947.314103 39.5692308,947.188462 C42.5846305,947.06282 44.5769182,946.641029 45.5461538,945.923077 C47.8077036,944.235889 49.5128148,941.453866 50.6615385,937.576923 C51.0205146,936.284609 51.3615368,934.489755 51.6846154,932.192308 C52.0076939,931.510253 52.4564074,931.007694 53.0307692,930.684615 C53.6051311,930.361537 54.2153814,930.2 54.8615385,930.2 C55.4717979,930.2 55.9833313,930.32564 56.3961538,930.576923 C56.8089764,930.828206 57.0153846,931.187177 57.0153846,931.653846 L57.0153846,954 Z M25.3,954.053846 L1.17692308,954.053846 L1.28461538,950.338462 C1.28461538,949.01025 2.32563062,948.076926 4.40769231,947.538462 C6.489754,946.999997 7.53076923,946.22821 7.53076923,945.223077 L7.53076923,909.738462 C7.53076923,907.584605 6.42693412,906.453847 4.21923077,906.346154 C2.01152742,906.238461 0.907692308,905.628211 0.907692308,904.515385 L0.853846154,900.153846 L31.9769231,900.153846 L31.8692308,904.623077 C31.8692308,905.592313 30.7743699,906.220511 28.5846154,906.507692 C26.3948608,906.794873 25.3,907.997425 25.3,910.115385 L25.3,954.053846 Z M124,904.138462 C124,904.712823 122.635911,905.574353 119.907692,906.723077 C118.579481,907.297439 117.915385,908.01538 117.915385,908.876923 L117.915385,932.030769 C117.915385,938.34875 117.000009,943.356392 115.169231,947.053846 C112.871783,951.720536 109.246179,954.053846 104.292308,954.053846 C103.682048,954.053846 103.188463,953.721798 102.811538,953.057692 C102.434614,952.393586 102.246154,951.612825 102.246154,950.715385 C102.246154,950.069228 102.344871,949.458977 102.542308,948.884615 C102.739745,948.310254 103.035895,947.879489 103.430769,947.592308 C106.194886,947.592308 108.169225,945.869248 109.353846,942.423077 C110.215389,939.910244 110.646154,936.446176 110.646154,932.030769 L110.592308,908.5 C110.592308,907.494867 109.46155,906.794874 107.2,906.4 C104.93845,906.005126 103.807692,905.287185 103.807692,904.246154 L103.753846,900.153846 L124,900.261538 L124,904.138462 Z M94.9769231,948.130769 C95.3717968,948.202564 95.7307676,948.579484 96.0538462,949.261538 C96.3769247,949.943593 96.5384615,950.679483 96.5384615,951.469231 C96.5384615,952.258978 96.3589762,952.896151 96,953.380769 C95.6410238,953.865387 95.0307735,954.107692 94.1692308,954.107692 C87.8153528,954.107692 82.5564311,953.048729 78.3923077,950.930769 C73.0076654,948.20255 70.3153846,944.056438 70.3153846,938.492308 L70.3692308,910.976923 C70.3692308,909.648711 69.310267,908.625645 67.1923077,907.907692 C65.0743484,907.18974 64.0153846,906.20257 64.0153846,904.946154 L64.0692308,900.261538 L93.2538462,900.261538 L93.2538462,904.246154 C93.2538462,905.287185 92.383342,906.283329 90.6423077,907.234615 C88.9012733,908.185902 88.0307692,908.966664 88.0307692,909.576923 L87.9230769,940.107692 C87.9230769,942.584628 88.6410185,944.505121 90.0769231,945.869231 C91.2256468,946.946159 92.8589638,947.699998 94.9769231,948.130769 Z M182.853846,919.538462 C182.853846,920.148721 182.593592,920.624357 182.073077,920.965385 C181.552562,921.306412 180.951285,921.476923 180.269231,921.476923 C178.905121,921.476923 178.06154,921.02821 177.738462,920.130769 C177.415383,918.874353 177.146155,917.905132 176.930769,917.223077 C176.284612,915.21281 175.638465,913.669236 174.992308,912.592308 C173.987174,910.833325 172.452574,909.343596 170.388462,908.123077 C168.324349,906.902558 166.251292,906.166668 164.169231,905.915385 C163.630767,905.915385 163.208976,905.646157 162.903846,905.107692 C162.598716,904.569228 162.446154,903.905132 162.446154,903.115385 C162.446154,902.289739 162.598716,901.589746 162.903846,901.015385 C163.208976,900.441023 163.630767,900.153846 164.169231,900.153846 C166.574371,900.153846 168.817938,900.47692 170.9,901.123077 C173.700014,901.98462 175.369228,902.451282 175.907692,902.523077 C176.374361,901.697432 177.083329,901.060259 178.034615,900.611538 C178.985902,900.162818 179.946149,899.938462 180.915385,899.938462 C182.171801,899.938462 182.8,900.351278 182.8,901.176923 L182.853846,919.538462 Z M179.192308,948.346154 C177.612813,950.176932 176.141032,951.487176 174.776923,952.276923 C172.982042,953.317954 170.792321,953.838462 168.207692,953.838462 C167.310252,953.838462 166.179494,953.748719 164.815385,953.569231 C164.420511,953.605128 164.106411,953.344875 163.873077,952.788462 C163.639742,952.232049 163.523077,951.558978 163.523077,950.769231 C163.523077,949.979483 163.639742,949.261542 163.873077,948.615385 C164.106411,947.969228 164.420511,947.628205 164.815385,947.592308 C166.933344,947.376922 168.665378,946.919234 170.011538,946.219231 C171.357699,945.519227 172.623071,944.397444 173.807692,942.853846 C174.633337,941.776918 175.297433,940.143601 175.8,937.953846 C175.94359,937.235894 176.105127,936.248724 176.284615,934.992308 C176.428206,934.489741 176.948713,934.06795 177.846154,933.726923 C178.743594,933.385896 179.730764,933.215385 180.807692,933.215385 C181.59744,933.215385 182.261536,933.33205 182.8,933.565385 C183.338464,933.798719 183.607692,934.148716 183.607692,934.615385 C183.607692,934.794873 183.589744,934.938461 183.553846,935.046154 C183.123075,937.379499 182.746155,939.192301 182.423077,940.484615 C181.417944,944.397455 180.341031,947.017942 179.192308,948.346154 Z M157.115385,953.623077 C155.751275,953.838463 154.45898,953.946154 153.238462,953.946154 C146.346119,953.946154 140.728227,951.038491 136.384615,945.223077 C132.39998,939.91023 130.407692,933.682087 130.407692,926.538462 C130.407692,919.78971 132.938436,913.759001 138,908.446154 C143.205154,902.989716 149.27176,900.261538 156.2,900.261538 C156.666669,900.261538 157.034614,900.566664 157.303846,901.176923 C157.573078,901.787183 157.707692,902.487176 157.707692,903.276923 C157.707692,904.102568 157.573078,904.82051 157.303846,905.430769 C157.034614,906.041029 156.666669,906.364102 156.2,906.4 C153.076907,907.333338 151.012826,910.025619 150.007692,914.476923 C149.469228,916.882063 149.2,920.723051 149.2,926 C149.2,929.91284 149.307691,932.910246 149.523077,934.992308 C149.882053,938.546172 150.582046,941.382041 151.623077,943.5 C152.879493,946.084628 154.656399,947.53846 156.953846,947.861538 C157.456413,947.825641 157.851281,948.094869 158.138462,948.669231 C158.425642,949.243593 158.569231,949.925637 158.569231,950.715385 C158.569231,951.54103 158.443591,952.232049 158.192308,952.788462 C157.941024,953.344875 157.582054,953.623077 157.115385,953.623077 Z M211.984615,945.492308 C211.984615,946.461543 213.097425,947.125639 215.323077,947.484615 C217.548729,947.843592 218.661538,948.72307 218.661538,950.123077 L218.715385,954.053846 L187.807692,954.053846 L187.915385,950.338462 C187.915385,949.01025 188.9564,948.076926 191.038462,947.538462 C193.120523,946.999997 194.161538,946.22821 194.161538,945.223077 L194.161538,909.738462 C194.161538,907.584605 193.057703,906.453847 190.85,906.346154 C188.642297,906.238461 187.538462,905.628211 187.538462,904.515385 L187.484615,900.153846 L218.607692,900.153846 L218.5,904.623077 C218.5,905.592313 217.405139,906.220511 215.215385,906.507692 C213.02563,906.794873 211.930769,907.997425 211.930769,910.115385 L211.984615,945.492308 Z M258.615385,954.107692 C258.220511,954.107692 257.906411,953.820516 257.673077,953.246154 C257.439742,952.671792 257.323077,952.007696 257.323077,951.253846 C257.323077,950.571791 257.421794,949.997438 257.619231,949.530769 C257.816668,949.0641 258.09487,948.830769 258.453846,948.830769 C261.792324,948.22051 264.341017,946.658987 266.1,944.146154 C267.571802,942.064092 268.541023,939.246172 269.007692,935.692308 C269.294873,933.538451 269.438462,930.23592 269.438462,925.784615 C269.438462,919.825611 268.882057,915.643602 267.769231,913.238462 C266.189736,909.864086 262.994896,907.764107 258.184615,906.938462 C257.753844,906.974359 257.412822,906.687183 257.161538,906.076923 C256.910255,905.466664 256.784615,904.748722 256.784615,903.923077 C256.784615,902.917944 256.910255,902.083337 257.161538,901.419231 C257.412822,900.755125 257.789741,900.423077 258.292308,900.423077 C266.261578,900.423077 273.153817,902.487159 278.969231,906.615385 C285.430802,911.210279 288.661538,917.312782 288.661538,924.923077 C288.661538,933.825686 286.633354,940.664079 282.576923,945.438462 C277.65895,951.217978 269.67185,954.107692 258.615385,954.107692 Z M250.161538,954.107692 L225.876923,953.946154 L225.930769,949.369231 C225.930769,948.687176 226.855119,948.112823 228.703846,947.646154 C230.552573,947.179485 231.476923,946.335904 231.476923,945.115385 L231.530769,908.230769 C231.530769,907.261534 230.561548,906.633335 228.623077,906.346154 C226.684606,906.058973 225.715385,905.520517 225.715385,904.730769 L225.661538,900.153846 L250.161538,900.1 L250.161538,954.107692 Z M749.8,900.207692 L749.907692,917.115385 L744.953846,917.276923 C744.415382,916.882049 743.984617,916.182056 743.661538,915.176923 C742.799996,912.484602 742.315385,911.066667 742.207692,910.923077 C741.094866,909.487172 740.017954,908.392311 738.976923,907.638462 C737.576916,906.633328 736.123084,906.130769 734.615385,906.130769 C734.041023,906.238462 733.601284,905.969234 733.296154,905.323077 C732.991024,904.67692 732.838462,903.887184 732.838462,902.953846 C732.838462,902.199996 732.937179,901.571797 733.134615,901.069231 C733.332052,900.566664 733.556409,900.297436 733.807692,900.261538 C734.058976,900.225641 734.238461,900.207692 734.346154,900.207692 L734.723077,900.207692 C735.656415,900.207692 736.894864,900.584612 738.438462,901.338462 C739.982059,902.092311 741.112817,902.469231 741.830769,902.469231 C742.441029,902.469231 743.042305,902.289745 743.634615,901.930769 C744.226926,901.571793 744.810254,900.99744 745.384615,900.207692 L749.8,900.207692 Z M752.276923,933 C752.492309,934.148724 752.6,935.243585 752.6,936.284615 C752.6,941.274384 750.625661,945.456393 746.676923,948.830769 C742.728185,952.205145 737.989771,953.892308 732.461538,953.892308 C731.994869,953.964103 731.626924,953.676926 731.357692,953.030769 C731.08846,952.384612 730.953846,951.576928 730.953846,950.607692 C730.953846,949.74615 731.052563,949.001285 731.25,948.373077 C731.447437,947.744869 731.743588,947.358975 732.138462,947.215385 C734.86668,946.964101 736.930762,946.353851 738.330769,945.384615 C739.479493,944.594868 740.053846,943.553853 740.053846,942.261538 C740.053846,939.784603 738.564117,937.953852 735.584615,936.769231 C734.507687,936.338459 731.555152,935.629492 726.726923,934.642308 C721.898694,933.655123 717.887195,931.689758 714.692308,928.746154 C711.138444,925.443573 709.361538,921.584637 709.361538,917.169231 C709.361538,912.646131 710.967933,908.688478 714.180769,905.296154 C717.393606,901.903829 721.243567,900.207692 725.730769,900.207692 C726.341029,900.351283 726.798716,900.746151 727.103846,901.392308 C727.408976,902.038465 727.561538,902.774355 727.561538,903.6 C727.561538,904.35385 727.435899,905.017946 727.184615,905.592308 C726.933332,906.16667 726.610258,906.453846 726.215385,906.453846 C724.63589,906.776925 723.298723,907.521789 722.203846,908.688462 C721.108969,909.855134 720.561538,911.120506 720.561538,912.484615 C720.561538,913.310261 720.812818,914.082048 721.315385,914.8 C723.289753,917.671809 726.448696,919.287178 730.792308,919.646154 C736.9308,920.184618 740.430765,920.615383 741.292308,920.938462 C743.912834,921.8718 746.246144,923.460245 748.292308,925.703846 C750.338472,927.947447 751.666664,930.379474 752.276923,933 Z M708.769231,953.946154 L708.661538,936.823077 L713.615385,936.876923 C714.153849,937.271797 714.584614,937.97179 714.907692,938.976923 C715.769235,941.669244 716.253846,943.087179 716.361538,943.230769 C717.474365,944.666674 718.551277,945.761535 719.592308,946.515385 C720.992315,947.520518 722.446146,948.023077 723.953846,948.023077 C724.528208,947.915384 724.967947,948.184612 725.273077,948.830769 C725.578207,949.476926 725.730769,950.266662 725.730769,951.2 C725.730769,951.95385 725.632052,952.582049 725.434615,953.084615 C725.237179,953.587182 725.012822,953.85641 724.761538,953.892308 C724.510255,953.928205 724.33077,953.946154 724.223077,953.946154 L723.846154,953.946154 C722.912816,953.946154 721.674367,953.569235 720.130769,952.815385 C718.587172,952.061535 717.456414,951.684615 716.738462,951.684615 C716.128202,951.684615 715.526926,951.864101 714.934615,952.223077 C714.342305,952.582053 713.758977,953.156406 713.184615,953.946154 L708.769231,953.946154 Z M820.984615,900.261538 L820.930769,927.076923 C820.751281,927.112821 820.464105,927.130769 820.069231,927.130769 C818.633326,927.130769 817.314109,926.700004 816.111538,925.838462 C814.908968,924.976919 814.307692,923.864109 814.307692,922.5 L814.253846,911.461538 C814.253846,910.420508 812.746169,909.002573 809.730769,907.207692 C808.294865,906.34615 807.576923,905.341031 807.576923,904.192308 L807.523077,900.153846 L820.984615,900.261538 Z M771.661538,900.153846 L771.607692,904.192308 C771.607692,905.484622 770.494883,906.705122 768.269231,907.853846 C766.043579,909.00257 764.930769,910.205122 764.930769,911.461538 L764.876923,922.5 C764.876923,923.864109 764.275647,924.976919 763.073077,925.838462 C761.870507,926.700004 760.533341,927.130769 759.061538,927.130769 C758.702562,927.130769 758.433334,927.112821 758.253846,927.076923 L758.2,900.261538 L771.661538,900.153846 Z M804.830769,954.053846 L773.923077,954.053846 L774.030769,950.338462 C774.030769,949.01025 775.071784,948.076926 777.153846,947.538462 C779.235908,946.999997 780.276923,946.22821 780.276923,945.223077 L780.276923,900.153846 L798.046154,900.153846 L798.1,945.492308 C798.1,946.461543 799.212809,947.125639 801.438462,947.484615 C803.664114,947.843592 804.776923,948.72307 804.776923,950.123077 L804.830769,954.053846 Z M888.507692,904.138462 C888.507692,904.712823 887.143603,905.574353 884.415385,906.723077 C883.087173,907.297439 882.423077,908.01538 882.423077,908.876923 L882.423077,932.030769 C882.423077,938.34875 881.507701,943.356392 879.676923,947.053846 C877.379476,951.720536 873.753871,954.053846 868.8,954.053846 C868.189741,954.053846 867.696156,953.721798 867.319231,953.057692 C866.942306,952.393586 866.753846,951.612825 866.753846,950.715385 C866.753846,950.069228 866.852563,949.458977 867.05,948.884615 C867.247437,948.310254 867.543588,947.879489 867.938462,947.592308 C870.702578,947.592308 872.676917,945.869248 873.861538,942.423077 C874.723081,939.910244 875.153846,936.446176 875.153846,932.030769 L875.1,908.5 C875.1,907.494867 873.969242,906.794874 871.707692,906.4 C869.446143,906.005126 868.315385,905.287185 868.315385,904.246154 L868.261538,900.153846 L888.507692,900.261538 L888.507692,904.138462 Z M859.484615,948.130769 C859.879489,948.202564 860.23846,948.579484 860.561538,949.261538 C860.884617,949.943593 861.046154,950.679483 861.046154,951.469231 C861.046154,952.258978 860.866668,952.896151 860.507692,953.380769 C860.148716,953.865387 859.538466,954.107692 858.676923,954.107692 C852.323045,954.107692 847.064123,953.048729 842.9,950.930769 C837.515358,948.20255 834.823077,944.056438 834.823077,938.492308 L834.876923,910.976923 C834.876923,909.648711 833.817959,908.625645 831.7,907.907692 C829.582041,907.18974 828.523077,906.20257 828.523077,904.946154 L828.576923,900.261538 L857.761538,900.261538 L857.761538,904.246154 C857.761538,905.287185 856.891034,906.283329 855.15,907.234615 C853.408966,908.185902 852.538462,908.966664 852.538462,909.576923 L852.430769,940.107692 C852.430769,942.584628 853.148711,944.505121 854.584615,945.869231 C855.733339,946.946159 857.366656,947.699998 859.484615,948.130769 Z M929.215385,954.107692 C928.820511,954.107692 928.506411,953.820516 928.273077,953.246154 C928.039742,952.671792 927.923077,952.007696 927.923077,951.253846 C927.923077,950.571791 928.021794,949.997438 928.219231,949.530769 C928.416668,949.0641 928.69487,948.830769 929.053846,948.830769 C932.392324,948.22051 934.941017,946.658987 936.7,944.146154 C938.171802,942.064092 939.141023,939.246172 939.607692,935.692308 C939.894873,933.538451 940.038462,930.23592 940.038462,925.784615 C940.038462,919.825611 939.482057,915.643602 938.369231,913.238462 C936.789736,909.864086 933.594896,907.764107 928.784615,906.938462 C928.353844,906.974359 928.012822,906.687183 927.761538,906.076923 C927.510255,905.466664 927.384615,904.748722 927.384615,903.923077 C927.384615,902.917944 927.510255,902.083337 927.761538,901.419231 C928.012822,900.755125 928.389741,900.423077 928.892308,900.423077 C936.861578,900.423077 943.753817,902.487159 949.569231,906.615385 C956.030802,911.210279 959.261538,917.312782 959.261538,924.923077 C959.261538,933.825686 957.233354,940.664079 953.176923,945.438462 C948.25895,951.217978 940.27185,954.107692 929.215385,954.107692 Z M920.761538,954.107692 L896.476923,953.946154 L896.530769,949.369231 C896.530769,948.687176 897.455119,948.112823 899.303846,947.646154 C901.152573,947.179485 902.076923,946.335904 902.076923,945.115385 L902.130769,908.230769 C902.130769,907.261534 901.161548,906.633335 899.223077,906.346154 C897.284606,906.058973 896.315385,905.520517 896.315385,904.730769 L896.261538,900.153846 L920.761538,900.1 L920.761538,954.107692 Z M988.5,945.492308 C988.5,946.461543 989.612809,947.125639 991.838462,947.484615 C994.064114,947.843592 995.176923,948.72307 995.176923,950.123077 L995.230769,954.053846 L964.323077,954.053846 L964.430769,950.338462 C964.430769,949.01025 965.471784,948.076926 967.553846,947.538462 C969.635908,946.999997 970.676923,946.22821 970.676923,945.223077 L970.676923,909.738462 C970.676923,907.584605 969.573088,906.453847 967.365385,906.346154 C965.157681,906.238461 964.053846,905.628211 964.053846,904.515385 L964,900.153846 L995.123077,900.153846 L995.015385,904.623077 C995.015385,905.592313 993.920524,906.220511 991.730769,906.507692 C989.541015,906.794873 988.446154,907.997425 988.446154,910.115385 L988.5,945.492308 Z M1060.22308,927.346154 C1060.22308,934.956448 1057.70131,941.283308 1052.65769,946.326923 C1047.61408,951.370538 1041.52055,953.892308 1034.37692,953.892308 C1033.47948,953.892308 1033.03077,953.228212 1033.03077,951.9 C1033.03077,951.289741 1033.14743,950.733336 1033.38077,950.230769 C1033.6141,949.728203 1033.9282,949.476923 1034.32308,949.476923 C1037.62566,948.723073 1039.85128,946.515403 1041,942.853846 C1041.75385,940.448706 1042.13077,936.607719 1042.13077,931.330769 L1042.13077,927.076923 C1042.13077,923.379469 1042.05898,920.687188 1041.91538,919 C1041.6641,915.876907 1041.1077,913.364112 1040.24615,911.461538 C1039.16923,909.056398 1037.58975,907.423081 1035.50769,906.561538 C1035.04102,906.561538 1034.65513,906.220516 1034.35,905.538462 C1034.04487,904.856407 1033.89231,904.048723 1033.89231,903.115385 C1033.89231,902.289739 1034.02692,901.607695 1034.29615,901.069231 C1034.56539,900.530767 1034.98718,900.279487 1035.56154,900.315385 C1042.31029,900.315385 1048.10767,902.971768 1052.95385,908.284615 C1057.80002,913.597462 1060.22308,919.951245 1060.22308,927.346154 Z M1027.10769,949.476923 C1027.53846,949.476923 1027.86154,949.683331 1028.07692,950.096154 C1028.29231,950.508976 1028.4,951.002561 1028.4,951.576923 C1028.4,952.22308 1028.28333,952.788459 1028.05,953.273077 C1027.81667,953.757695 1027.50257,954 1027.10769,954 C1019.96407,954 1013.89746,951.505153 1008.90769,946.515385 C1003.77433,941.382026 1001.20769,934.992346 1001.20769,927.346154 C1001.20769,919.951245 1003.63075,913.597462 1008.47692,908.284615 C1013.3231,902.971768 1019.12048,900.315385 1025.86923,900.315385 C1026.44359,900.315385 1026.93718,900.68333 1027.35,901.419231 C1027.76282,902.155132 1027.96923,902.989739 1027.96923,903.923077 C1027.96923,904.676927 1027.78975,905.305126 1027.43077,905.807692 C1027.07179,906.310259 1026.53334,906.561538 1025.81538,906.561538 C1023.08717,907.279491 1021.23847,909.37947 1020.26923,912.861538 C1019.62307,915.194883 1019.3,918.6769 1019.3,923.307692 L1019.3,931.330769 C1019.3,937.971828 1019.98204,942.566654 1021.34615,945.115385 C1022.60257,947.44873 1024.52306,948.902561 1027.10769,949.476923 Z" id="LS" fill="#3772B7"></path>
            <path d="M347.246154,954.107692 L322.961538,953.946154 L323.015385,949.369231 C323.015385,948.687176 323.939734,948.112823 325.788462,947.646154 C327.637189,947.179485 328.561538,946.335904 328.561538,945.115385 L328.615385,908.230769 C328.615385,907.261534 327.646164,906.633335 325.707692,906.346154 C323.769221,906.058973 322.8,905.520517 322.8,904.730769 L322.746154,900.153846 L347.246154,900.1 L347.246154,954.107692 Z M457.846154,946.407692 C458.276925,946.515385 458.608973,946.82051 458.842308,947.323077 C459.075642,947.825644 459.192308,948.417945 459.192308,949.1 C459.192308,949.85385 459.075642,950.491023 458.842308,951.011538 C458.608973,951.532054 458.241028,951.864102 457.738462,952.007692 C456.194864,952.689747 454.642316,953.183332 453.080769,953.488462 C451.519223,953.793591 449.697446,953.946154 447.615385,953.946154 C444.923063,953.946154 442.87693,953.676926 441.476923,953.138462 C439.610247,952.420509 438.10257,951.05642 436.953846,949.046154 C436.199996,947.75384 435.733334,946.398725 435.553846,944.980769 C435.374358,943.562813 435.284615,941.848728 435.284615,939.838462 L435.284615,938.438462 C435.284615,935.997424 435.051284,934.220518 434.584615,933.107692 C434.117946,931.994866 433.400005,931.061542 432.430769,930.307692 C431.353841,929.841023 430.025649,929.464104 428.446154,929.176923 C426.54358,928.92564 425.19744,928.746154 424.407692,928.638462 C424.012819,928.638462 423.707693,928.450002 423.492308,928.073077 C423.276922,927.696152 423.169231,927.220516 423.169231,926.646154 C423.169231,925.892304 423.339742,925.228208 423.680769,924.653846 C424.021797,924.079484 424.515381,923.792308 425.161538,923.792308 C428.356426,923.792308 430.869222,923.217954 432.7,922.069231 C434.997447,920.633326 436.146154,918.282068 436.146154,915.015385 C436.146154,912.610244 434.871808,910.528214 432.323077,908.769231 C430.133322,907.261531 427.997446,906.507692 425.915385,906.507692 C425.448716,906.507692 425.080771,906.238464 424.811538,905.7 C424.542306,905.161536 424.407692,904.479491 424.407692,903.653846 C424.407692,902.720508 424.587178,901.921798 424.946154,901.257692 C425.30513,900.593586 425.843586,900.261538 426.561538,900.261538 L427.746154,900.261538 C430.761554,900.153846 432.484613,900.1 432.915385,900.1 C434.63847,900.1 435.876919,900.153846 436.630769,900.261538 C441.692333,900.261538 445.766651,901.410245 448.853846,903.707692 C452.156427,906.14873 453.807692,909.523055 453.807692,913.830769 C453.807692,916.882067 452.820523,919.448708 450.846154,921.530769 C449.015375,923.433343 446.484632,924.81538 443.253846,925.676923 C445.15642,925.892309 446.897428,926.556405 448.476923,927.669231 C449.912828,928.674364 450.998714,929.858968 451.734615,931.223077 C452.470517,932.587186 452.910256,934.839728 453.053846,937.980769 C453.197437,941.121811 453.430768,943.284609 453.753846,944.469231 C453.933334,945.187183 454.417945,945.725639 455.207692,946.084615 C455.782054,946.335899 456.410253,946.461538 457.092308,946.461538 L457.630769,946.461538 C457.666667,946.461538 457.738461,946.44359 457.846154,946.407692 Z M416.6,900.1 L416.6,944.953846 C416.6,946.24616 418.107677,947.089742 421.123077,947.484615 C424.138477,947.879489 425.646154,948.902556 425.646154,950.553846 L425.592308,954.053846 L392.207692,954 C392.028204,953.784614 391.902564,953.542309 391.830769,953.273077 C391.758974,953.003845 391.723077,952.725642 391.723077,952.438462 C391.723077,951.828202 391.848717,951.182055 392.1,950.5 C392.135898,950.392307 392.207692,950.23077 392.315385,950.015385 C392.315385,948.866661 393.23076,948.076925 395.061538,947.646154 C396.892317,947.215382 397.807692,946.587184 397.807692,945.761538 L397.915385,908.338462 C397.915385,907.512816 396.964112,906.884618 395.061538,906.453846 C393.158965,906.023075 392.207692,905.071802 392.207692,903.6 L392.315385,900.1 L416.6,900.1 Z M507.061538,935.261538 L503.615385,935.369231 C502.502559,935.369231 501.766668,934.391035 501.407692,932.434615 C501.048716,930.478195 500.223083,929.5 498.930769,929.5 L495.861538,929.5 C495.394869,929.535898 495.044873,929.302567 494.811538,928.8 C494.578204,928.297433 494.461538,927.615389 494.461538,926.753846 C494.461538,925.784611 494.596153,924.914106 494.865385,924.142308 C495.134617,923.370509 495.466665,922.984615 495.861538,922.984615 L499.038462,922.984615 C500.151288,922.984615 500.797435,921.907703 500.976923,919.753846 C501.156411,917.599989 501.892301,916.523077 503.184615,916.523077 L507.061538,916.523077 L507.061538,935.261538 Z M519.769231,954.053846 L497.369231,954.053846 L497.207692,948.561538 C497.207692,947.520508 497.548715,946.838463 498.230769,946.515385 C498.912824,946.192306 499.917942,946.030769 501.246154,946.030769 C501.676925,946.030769 502.125639,946.039743 502.592308,946.057692 C503.058977,946.075641 503.543587,946.084615 504.046154,946.084615 C505.087185,946.084615 506.011534,946.003847 506.819231,945.842308 C507.626927,945.680768 508.335894,945.34872 508.946154,944.846154 C510.274366,943.733328 511.099998,941.247455 511.423077,937.388462 C511.746155,933.529468 512.858965,931.6 514.761538,931.6 L519.715385,931.6 L519.769231,954.053846 Z M519.769231,900.1 L519.715385,921.692308 L514.761538,921.692308 C512.894862,921.692308 511.81795,919.924377 511.530769,916.388462 C511.243588,912.852546 510.382058,910.492314 508.946154,909.307692 C508.371792,908.805126 507.680773,908.473078 506.873077,908.311538 C506.065381,908.149999 505.087185,908.069231 503.938462,908.069231 C503.471793,908.069231 503.005131,908.078205 502.538462,908.096154 C502.071793,908.114103 501.623079,908.123077 501.192308,908.123077 C499.792301,908.123077 498.841028,907.997437 498.338462,907.746154 C497.584612,907.387178 497.207692,906.669236 497.207692,905.592308 L497.369231,900.1 L519.769231,900.1 Z M488.7,900.1 L488.646154,954.053846 L464.307692,954 L464.415385,950.661538 C464.415385,949.620508 465.357683,948.776926 467.242308,948.130769 C469.126933,947.484612 470.069231,946.694876 470.069231,945.761538 L470.069231,908.338462 C470.069231,907.476919 469.108984,906.830771 467.188462,906.4 C465.267939,905.969229 464.307692,905.035905 464.307692,903.6 L464.415385,900.1 L488.7,900.1 Z M588.1,949.584615 L589.069231,954 L556.707692,953.946154 L557.246154,949.746154 C557.353847,948.848713 558.430759,948.220515 560.476923,947.861538 C562.523087,947.502562 563.546154,946.946158 563.546154,946.192308 C563.546154,945.905127 563.47436,945.600002 563.330769,945.276923 C563.115384,944.056404 562.91795,943.12308 562.738462,942.476923 C562.1641,940.466657 561.446158,939.19231 560.584615,938.653846 C560.153844,938.617949 559.1577,938.582051 557.596154,938.546154 C556.034608,938.510256 555.235898,938.492308 555.2,938.492308 L552.911538,938.492308 C552.319228,938.492308 551.789746,938.510256 551.323077,938.546154 C550.856408,938.546154 550.497437,938.303849 550.246154,937.819231 C549.994871,937.334613 549.869231,936.751285 549.869231,936.069231 C549.869231,935.423074 549.985896,934.866669 550.219231,934.4 C550.452565,933.933331 550.802562,933.7 551.269231,933.7 L559.561538,933.807692 L548.469231,909.9 L552.130769,900.207692 L565.323077,900.153846 L582.392308,944.738462 C582.751284,945.635902 583.451277,946.335895 584.492308,946.838462 C586.71796,947.879492 587.920512,948.794868 588.1,949.584615 Z M547.984615,923.684615 L540.661538,942.476923 C540.48205,942.907694 540.356411,943.320511 540.284615,943.715385 C540.21282,944.110258 540.176923,944.451281 540.176923,944.738462 C540.176923,946.030776 541.244861,946.928203 543.380769,947.430769 C545.516677,947.933336 546.584615,948.687174 546.584615,949.692308 L546.853846,954.107692 L525.8,953.946154 L525.746154,950.553846 C525.746154,949.225634 526.715375,948.112825 528.653846,947.215385 C530.915396,946.174354 532.297433,945.043596 532.8,943.823077 L544.592308,915.607692 C545.023079,915.894873 545.471793,916.164101 545.938462,916.415385 C547.410264,918.712832 548.146154,920.83076 548.146154,922.769231 C548.146154,923.164105 548.092308,923.46923 547.984615,923.684615 Z M675.707692,949.961538 L675.653846,954 L646.307692,954 L646.307692,949.746154 C646.307692,948.776918 647.205119,947.879491 649,947.053846 C650.794881,946.228201 651.692308,945.330774 651.692308,944.361538 L651.692308,900.153846 L675.869231,900.153846 L675.923077,904.3 C675.923077,905.269236 674.783345,906.130765 672.503846,906.884615 C670.224348,907.638465 669.084615,908.589738 669.084615,909.738462 L669.084615,944.630769 C669.084615,945.6718 670.188451,946.47051 672.396154,947.026923 C674.603857,947.583336 675.707692,948.561531 675.707692,949.961538 Z M355.7,954.107692 C355.305126,954.107692 354.991027,953.820516 354.757692,953.246154 C354.524358,952.671792 354.407692,952.007696 354.407692,951.253846 C354.407692,950.571791 354.506409,949.997438 354.703846,949.530769 C354.901283,949.0641 355.179485,948.830769 355.538462,948.830769 C358.87694,948.22051 361.425632,946.658987 363.184615,944.146154 C364.656418,942.064092 365.625639,939.246172 366.092308,935.692308 C366.379489,933.538451 366.523077,930.23592 366.523077,925.784615 C366.523077,919.825611 365.966672,915.643602 364.853846,913.238462 C363.274351,909.864086 360.079511,907.764107 355.269231,906.938462 C354.838459,906.974359 354.497437,906.687183 354.246154,906.076923 C353.994871,905.466664 353.869231,904.748722 353.869231,903.923077 C353.869231,902.917944 353.994871,902.083337 354.246154,901.419231 C354.497437,900.755125 354.874356,900.423077 355.376923,900.423077 C363.346194,900.423077 370.238432,902.487159 376.053846,906.615385 C382.515417,911.210279 385.746154,917.312782 385.746154,924.923077 C385.746154,933.825686 383.717969,940.664079 379.661538,945.438462 C374.743565,951.217978 366.756466,954.107692 355.7,954.107692 Z M642.323077,920.776923 L632.146154,952.923077 C632.038461,953.246155 631.796156,953.524358 631.419231,953.757692 C631.042306,953.991027 630.638464,954.107692 630.207692,954.107692 C629.453842,954.107692 628.933335,953.802567 628.646154,953.192308 L608.453846,909.9 C607.95128,908.823072 605.671815,907.817953 601.615385,906.884615 C599.928197,906.489742 599.084615,905.843594 599.084615,904.946154 L599.192308,900.153846 L622.938462,900.261538 L633.869231,923.846154 L642.269231,900.153846 L642.323077,920.776923 Z M614.215385,950.553846 L614.215385,954 L595.369231,954 L595.369231,950.338462 C595.369231,949.476919 596.410246,948.741029 598.492308,948.130769 C600.574369,947.52051 601.615385,946.587186 601.615385,945.330769 L601.615385,915.876923 L607.753846,926.807692 L607.753846,944.9 C607.753846,946.012826 608.830758,946.964099 610.984615,947.753846 C613.138472,948.543594 614.215385,949.476918 614.215385,950.553846 Z" id="D" fill="#282828"></path>
            <polygon id="side_4" fill="#282828" points="304.250226 203.48457 450 390.590609 450 629.988894 304.250226 746.315255"></polygon>
            <polygon id="side_3" fill="#282828" points="306.356688 197.797213 680.291121 288.339086 533.348245 403.585809 452.452357 383.973751"></polygon>
            <polygon id="side_2" fill="#282828" transform="translate(492.436411, 736.590058) scale(-1, -1) translate(-492.436411, -736.590058) " points="306.493255 635.486262 678.379566 721.772465 533.400994 837.693855 451.931897 819.303293"></polygon>
            <polyline id="Line" stroke="#3772B7" stroke-width="20" stroke-linecap="square" points="84.0607092 0.548894484 84.0607092 484.453456 940.349017 484.453456 940.349017 264.690464 705.078092 264.690464 705.078092 40.5217936 936.016717 40.5217936"></polyline>
            <polyline id="Line" stroke="#3772B7" stroke-width="20" stroke-linecap="square" points="124.060709 40.7195161 124.060709 444.453456 980.349017 444.453456 980.349017 224.690464 745.078092 224.690464 745.078092 0.521793582 976.016717 0.521793582"></polyline>
            <polygon id="side_1" fill="#282828" points="535.227591 409.767191 681.806099 294.108806 681.806099 832.356006 535.227591 647.147003"></polygon>
        </g>
    </g>
</svg>