<?xml version="1.0" encoding="UTF-8"?>
<svg viewBox="0 0 89 60" version="1.1" xmlns="http://www.w3.org/2000/svg" xmlns:xlink="http://www.w3.org/1999/xlink" x="0px" y="0px" style="enable-background:new 0 0 89 60;" xml:space="preserve">
    <path d="M70.0390625,44.8984375 L69.9609375,42.7890625 C69.9609375,39.013002 70.598952,35.8489711 71.875,33.296875 C72.7604211,31.5260328 74.6223816,29.1172027 77.4609375,26.0703125 C79.3880305,24.0130105 80.6510387,22.3398502 81.25,21.0507812 C81.8489613,19.7617123 82.1484375,18.3619867 82.1484375,16.8515625 C82.1484375,13.9869648 81.2369883,11.5520934 79.4140625,9.546875 C77.5911367,7.54165664 75.4948035,6.5390625 73.125,6.5390625 C70.7031129,6.5390625 68.6523521,7.46353242 66.9726562,9.3125 C65.2929604,11.1614676 64.2057316,14.1041465 63.7109375,18.140625 L57.7734375,17.28125 C58.346357,11.7603891 59.9804553,7.62631582 62.6757812,4.87890625 C65.3711072,2.13149668 68.8411246,0.7578125 73.0859375,0.7578125 C77.3567922,0.7578125 80.9179545,2.2226416 83.7695312,5.15234375 C86.621108,8.0820459 88.046875,11.825498 88.046875,16.3828125 C88.046875,18.882825 87.5781297,21.1744687 86.640625,23.2578125 C85.7031203,25.3411562 83.8281391,27.9192555 81.015625,30.9921875 C78.6197797,33.5703254 77.1289092,35.6080654 76.5429688,37.1054687 C75.9570283,38.6028721 75.6250004,41.2005023 75.546875,44.8984375 L70.0390625,44.8984375 Z M69.6484375,59 L69.6484375,50.9921875 L76.2109375,50.9921875 L76.2109375,59 L69.6484375,59 Z M27.5,1.1 C27.3,1.3 27.1,1.4 26.9,1.6 C24.4,3.9 23.1,6.8 23.1,10.5 C23.1,12.9 23.8,15.1 25.1,17 C26.4,18.9 28.7,20.8 31.9,22.7 L36.9,25.8 C41,28.3 43,31 43,33.8 C43,35.5 42.3,37 40.9,38.2 C39.5,39.4 37.8,39.9 35.7,39.9 C31,39.9 26.8,37.6 23.2,33.1 L23.2,41.5 C27,44.3 31.1,45.7 35.7,45.7 C36.6,45.7 37.4,45.6 38.2,45.5 C37.5,45.8 36.8,46 36.1,46.2 C32.7,47.2 28.8,47.7 24.4,47.7 L11.4,47.7 L11.4,1 L24.4,1 C25.6,1 26.5,1 27.5,1.1 Z M45,6.9 C47.3,8.9 49.1,11.3 50.4,14.2 C51.6,17.1 52.3,20.5 52.3,24.3 C52.3,28.1 51.7,31.5 50.4,34.4 C49.9,35.7 49.2,36.8 48.5,37.9 C49.1,36.4 49.3,34.8 49.3,33.1 C49.3,27.9 46.5,23.6 40.8,20.2 L35.7,17.2 C33.4,15.9 31.8,14.6 30.8,13.4 C29.8,12.2 29.3,10.9 29.3,9.5 C29.3,7.9 30,6.6 31.4,5.6 C32.8,4.6 34.6,4.1 36.7,4.1 C39.6,4.1 42.4,5.1 45,6.9 Z M0,1 L5.5,1 L5.5,53.8 L48.4,53.8 L48.4,59.4 L0,59.4 L0,1 Z" id="LDS?" fill="#FFFFFF"></path>
</svg>