<?xml version="1.0" encoding="UTF-8"?>
<svg viewBox="0 0 70 23" version="1.1" xmlns="http://www.w3.org/2000/svg" xmlns:xlink="http://www.w3.org/1999/xlink" style="enable-background:new 0 0 70 23;" xml:space="preserve" x="0px" y="0px">

    <g id="MR" fill="#FFFFFF">
        <path d="M3.62450955,4.12299255 C4.08234354,3.73566622 11.4685502,0.0772281424 34.8634551,0.0772281424 C58.25836,0.0772281424 65.7933182,3.63242082 66.139684,4.12299255 C66.4860498,4.61356428 66.139684,9.8367948 65.826559,9.87300146 C65.5134341,9.90920812 51.2134585,6.79944437 34.8618375,6.79944437 C18.5102166,6.79944437 4.40342416,9.87300146 4.08234354,9.8367948 C3.76126291,9.80058814 3.16667556,4.51031888 3.62450955,4.12299255 Z M4.49469882,11.8538777 C4.49469882,11.1920739 19.3233454,8.57587222 34.9551686,8.57587222 C50.5869917,8.57587222 65.4156383,11.2024024 65.4156383,11.8538777 C65.4156383,12.5053531 65.4156383,16.2581031 60.8877014,19.2641841 C56.3597644,22.2702652 48.9469073,22.8559057 41.2462369,22.8559057 C39.475583,22.8559057 36.5555309,19.2641841 34.9551686,19.2641841 C33.3548062,19.2641841 30.3904482,22.8559057 28.7049931,22.8559057 C15.8098198,22.8559057 12.7968395,21.4008681 8.94565677,19.2641841 C5.094474,17.1275002 4.49469882,12.5156816 4.49469882,11.8538777 Z M69.7270255,5.43254589 C69.7270255,5.59122908 69.7270255,10.6617432 69.7270255,10.8370589 C69.7270255,11.0123745 68.4591897,10.5310595 68.3524226,10.2651403 C68.2456555,9.99922114 68.6835205,5.26659195 68.8108141,5.05948559 C68.9381076,4.85237924 69.7270255,5.27386269 69.7270255,5.43254589 Z M0.0558127759,5.43254589 C0.0558127759,5.27386269 0.844730666,4.85237924 0.972024208,5.05948559 C1.09931775,5.26659195 1.53718276,9.99922114 1.43041567,10.2651403 C1.32364859,10.5310595 0.0558127759,11.0123745 0.0558127759,10.8370589 C0.0558127759,10.6617432 0.0558127759,5.59122908 0.0558127759,5.43254589 Z M0.156688414,12.781759 C0.156688414,12.7157868 1.58591536,12.2337134 1.81224068,12.2905669 C2.038566,12.3474204 3.17671817,15.8186959 3.06479331,15.9159364 C2.95286846,16.0131768 0.156688414,15.2278256 0.156688414,15.0287639 L0.156688414,12.781759 Z M69.7925118,12.781759 L69.7925118,15.0287639 C69.7925118,15.2278256 66.9963318,16.0131768 66.8844069,15.9159364 C66.7724821,15.8186959 67.9106342,12.3474204 68.1369596,12.2905669 C68.3632849,12.2337134 69.7925118,12.7157868 69.7925118,12.781759 Z"></path>
    </g>

</svg>