<?xml version="1.0" encoding="UTF-8"?>
<svg viewBox="0 0 52 20" version="1.1" x="0px" y="0px" style="enable-background:new 0 0 52 20;" xmlns="http://www.w3.org/2000/svg" xmlns:xlink="http://www.w3.org/1999/xlink">
    <g id="Page-1" stroke="none" stroke-width="1" fill="none" fill-rule="evenodd">
        <g id="pano-icon-black" fill="#FFFFFF">
            <g id="360">
                <path d="M41.4,6.7 C41.8,6.8 42.2,6.9 42.6,7 C43.1,7.1 43.5,6.8 43.6,6.4 C43.7,5.9 43.4,5.5 43,5.4 C42.6,5.3 42.2,5.2 41.8,5.1 C41.3,5 40.9,5.3 40.8,5.7 C40.7,6.1 40.9,6.6 41.4,6.7 L41.4,6.7 Z" id="Shape" fill-rule="nonzero"></path>
                <path d="M3.7,9.4 C4.2,9 4.8,8.6 5.6,8.2 C6,8 6.2,7.5 6,7.1 C5.8,6.7 5.3,6.5 4.9,6.7 C4,7.1 3.3,7.6 2.7,8.2 C2.3,8.5 2.3,9 2.6,9.4 C2.9,9.8 3.4,9.7 3.7,9.4 L3.7,9.4 Z M3.6,13 C3,12.4 2.7,11.9 2.6,11.4 C2.5,10.9 2.1,10.6 1.6,10.7 C1.1,10.8 0.8,11.2 0.9,11.7 L0.9,11.7 C1,12.7 1.6,13.5 2.4,14.3 C2.7,14.6 3.3,14.6 3.6,14.3 C3.9,14 4,13.4 3.6,13 L3.6,13 Z M8.4,15.6 C7.6,15.3 6.9,15 6.2,14.7 C5.8,14.5 5.3,14.7 5.1,15.1 C4.9,15.5 5.1,16 5.5,16.2 C6.2,16.5 7,16.9 7.9,17.2 C8.3,17.4 8.8,17.1 9,16.7 C9.1,16.2 8.8,15.7 8.4,15.6 L8.4,15.6 Z M13.8,17 C13,16.8 12.2,16.7 11.4,16.5 C10.9,16.4 10.5,16.7 10.4,17.1 C10.3,17.6 10.6,18 11,18.1 C11.8,18.3 12.6,18.5 13.5,18.7 C14,18.8 14.4,18.5 14.5,18 C14.6,17.5 14.3,17.1 13.8,17 L13.8,17 Z M19.5,17.9 C18.7,17.8 17.9,17.7 17.1,17.6 C16.6,17.5 16.2,17.9 16.2,18.3 C16.1,18.8 16.5,19.2 16.9,19.2 C17.7,19.3 18.5,19.4 19.4,19.5 C19.9,19.5 20.3,19.2 20.3,18.7 C20.3,18.3 19.9,17.9 19.5,17.9 L19.5,17.9 Z M25.2,18.2 C24.4,18.2 23.6,18.1 22.8,18.1 C22.3,18.1 21.9,18.4 21.9,18.9 C21.9,19.4 22.2,19.8 22.7,19.8 L22.7,19.8 C23.5,19.8 24.4,19.9 25.2,19.9 C25.7,19.9 26.1,19.5 26.1,19.1 C26,18.6 25.6,18.3 25.2,18.2 L25.2,18.2 Z M30.9,18.2 C30.1,18.2 29.3,18.3 28.5,18.3 C28,18.3 27.7,18.7 27.7,19.2 C27.7,19.7 28.1,20 28.6,20 L28.6,20 C29.4,20 30.3,20 31.1,19.9 C31.6,19.9 31.9,19.5 31.9,19 C31.9,18.5 31.4,18.2 30.9,18.2 L30.9,18.2 Z M36.6,17.7 C35.8,17.8 35,17.9 34.2,18 C33.7,18 33.4,18.5 33.4,18.9 C33.4,19.4 33.9,19.7 34.3,19.7 C35.2,19.6 36,19.5 36.8,19.4 C37.3,19.3 37.6,18.9 37.5,18.5 C37.5,17.9 37,17.6 36.6,17.7 L36.6,17.7 Z M42.1,16.6 C41.4,16.8 40.6,17 39.7,17.1 C39.2,17.2 38.9,17.6 39,18.1 C39.1,18.6 39.5,18.9 40,18.8 C40.9,18.6 41.7,18.4 42.5,18.2 C42.9,18.1 43.2,17.6 43.1,17.2 C43,16.8 42.6,16.5 42.1,16.6 L42.1,16.6 Z M47.3,14.7 C46.7,15 46,15.4 45.2,15.7 C44.8,15.9 44.6,16.4 44.7,16.8 C44.9,17.2 45.4,17.4 45.8,17.3 C46.7,17 47.5,16.6 48.2,16.2 C48.6,16 48.7,15.5 48.5,15.1 C48.2,14.6 47.7,14.4 47.3,14.7 L47.3,14.7 Z M49.6,11.2 C49.7,11.4 49.8,11.7 49.8,11.9 L50.6,11.9 L49.8,11.9 C49.8,12.2 49.7,12.5 49.5,12.8 C49.3,13.2 49.4,13.7 49.8,14 C50.2,14.2 50.7,14.1 51,13.7 C51.3,13.2 51.5,12.6 51.5,11.9 L51.5,11.9 C51.5,11.4 51.4,11 51.2,10.5 C51,10.1 50.5,9.9 50.1,10.1 C49.6,10.3 49.4,10.8 49.6,11.2 L49.6,11.2 Z M45.6,8.2 C46.4,8.6 47.1,8.9 47.7,9.3 C48.1,9.6 48.6,9.4 48.9,9.1 C49.2,8.7 49,8.2 48.7,7.9 C48,7.5 47.3,7.1 46.4,6.7 C46,6.5 45.5,6.7 45.3,7.1 C44.9,7.5 45.1,8 45.6,8.2 L45.6,8.2 Z" id="Shape" fill-rule="nonzero"></path>
                <path d="M8.8,7 C9.1,6.9 9.4,6.8 9.8,6.7 C10.3,6.6 10.5,6.1 10.4,5.7 C10.3,5.2 9.8,5 9.4,5.1 C9,5.2 8.5,5.3 8,5.6 C7.6,5.8 7.4,6.3 7.6,6.7 C7.9,7 8.4,7.2 8.8,7 L8.8,7 Z" id="Shape" fill-rule="nonzero"></path>
                <circle id="Oval" fill-rule="nonzero" cx="14.8" cy="5.1" r="3.3"></circle>
                <circle id="Oval" fill-rule="nonzero" cx="36.6" cy="5.1" r="3.3"></circle>
                <path d="M21.524,3.132 C21.524,3.804 21.224,4.02 20.732,4.02 L20.216,4.02 L20.216,5.22 L20.66,5.22 C21.26,5.22 21.524,5.508 21.524,6.288 L21.524,6.948 C21.524,7.692 21.26,7.896 20.84,7.896 C20.42,7.896 20.156,7.668 20.156,7.068 L20.156,6.288 L18.908,6.288 L18.908,6.984 C18.908,8.328 19.58,9.096 20.876,9.096 C22.172,9.096 22.844,8.328 22.844,6.984 L22.844,6.324 C22.844,5.472 22.58,4.86 21.92,4.572 L21.92,4.548 C22.556,4.284 22.844,3.732 22.844,2.832 L22.844,2.616 C22.844,1.272 22.172,0.504 20.876,0.504 C19.58,0.504 18.908,1.272 18.908,2.616 L18.908,3.072 L20.156,3.072 L20.156,2.532 C20.156,1.932 20.42,1.704 20.84,1.704 C21.26,1.704 21.524,1.908 21.524,2.664 L21.524,3.132 Z M23.648,6.984 L23.648,2.688 C23.648,1.272 24.296,0.504 25.664,0.504 C26.96,0.504 27.632,1.272 27.632,2.616 L27.632,2.832 L26.384,2.832 L26.384,2.532 C26.384,1.932 26.12,1.704 25.7,1.704 C25.232,1.704 24.968,1.932 24.968,2.736 L24.968,4.26 L24.992,4.26 C25.22,3.78 25.604,3.528 26.192,3.528 C27.164,3.528 27.656,4.212 27.656,5.448 L27.656,6.984 C27.656,8.328 26.948,9.096 25.652,9.096 C24.356,9.096 23.648,8.328 23.648,6.984 Z M25.652,4.728 C25.232,4.728 24.968,4.956 24.968,5.556 L24.968,7.068 C24.968,7.668 25.232,7.884 25.652,7.884 C26.072,7.884 26.336,7.668 26.336,7.068 L26.336,5.556 C26.336,4.956 26.072,4.728 25.652,4.728 Z M29.696,2.532 L29.696,7.068 C29.696,7.668 29.96,7.896 30.38,7.896 C30.8,7.896 31.064,7.668 31.064,7.068 L31.064,2.532 C31.064,1.932 30.8,1.704 30.38,1.704 C29.96,1.704 29.696,1.932 29.696,2.532 Z M28.376,6.984 L28.376,2.616 C28.376,1.272 29.084,0.504 30.38,0.504 C31.676,0.504 32.384,1.272 32.384,2.616 L32.384,6.984 C32.384,8.328 31.676,9.096 30.38,9.096 C29.084,9.096 28.376,8.328 28.376,6.984 Z"></path>
            </g>
        </g>
    </g>
</svg>