<?xml version="1.0" encoding="UTF-8"?>
<svg viewBox="0 0 35 29" version="1.1" xmlns="http://www.w3.org/2000/svg" xmlns:xlink="http://www.w3.org/1999/xlink" x="0px" y="0px" style="enable-background:new 0 0 35 29;" xml:space="preserve">
    <g id="VR" stroke="none" stroke-width="1" fill="none" fill-rule="evenodd">
        <g id="VR" fill="#FFFFFF">
            <polygon points="20.08 0 11.84 20 4.24 0 0.88 0 11.72 28.48 23.44 0"></polygon>
            <path d="M22.0667712,10.2303794 C23.1900969,7.52090981 24.282948,4.89506266 25.0833195,2.99403432 C25.8260628,1.22988371 26.3358051,0.10329557 26.3868385,0.10329557 C30.8464241,0.10329557 33.64,4.28879933 33.64,8.52 C33.64,11.8 31.92,14.64 29.16,16.08 L34.56,28 L31.12,28 L26.16,17 C25.72,17.04 25.32,17.08 24.92,17.08 L20.24,17.08 L20.24,28 L17,28 L17,22.5 C17,22.5 18.608804,18.5895977 20.49158,14.0354859 L20.4799805,14.0354859 L22.0667712,10.2303794 Z M22.0667712,10.2303794 C21.539387,11.5024339 21.0052857,12.7929201 20.49158,14.0354859 L24.7907489,14.0354843 C27.91021,14.0899347 30.3123863,11.6914932 30.3647435,8.69195011 C30.4164026,5.73240093 28.2759424,3.26214384 24.9965089,3.20490112 L22.0667712,10.2303794 Z" id="R"></path>
        </g>
    </g>
</svg>