<?xml version="1.0" encoding="UTF-8"?>
<svg viewBox="0 0 36 25" version="1.1" xmlns="http://www.w3.org/2000/svg" xmlns:xlink="http://www.w3.org/1999/xlink">
	<!-- Designed By: Atul Meshram -->
    <g id="Page-1" stroke="none" stroke-width="1" fill="none" fill-rule="evenodd">
        <g id="AR" fill="#FFFFFF">
            <path d="M18.1937499,0.22 L24.5287499,0.22 C25.7187558,0.22 26.9029106,0.2899993 28.0812499,0.43 C29.2595891,0.5700007 30.3154119,0.873331 31.2487499,1.34 C32.1820879,1.806669 32.9404136,2.48916217 33.5237499,3.3875 C34.1070861,4.28583783 34.3987499,5.5049923 34.3987499,7.045 C34.3987499,8.8650091 33.850422,10.3349944 32.7537499,11.455 C31.6570777,12.5750056 30.1404262,13.2866651 28.2037499,13.59 L35.2387499,25 L31.6337499,25 L24.9137499,13.87 L21.8674642,13.87 L18.1937499,5.54959731 L18.1937499,0.22 Z M21.1337499,11.14 L23.7587499,11.14 C24.5754206,11.14 25.4212455,11.1166669 26.2962499,11.07 C27.1712542,11.0233331 27.9762462,10.871668 28.7112499,10.615 C29.4462535,10.3583321 30.0529141,9.95583607 30.5312499,9.4075 C31.0095856,8.85916392 31.2487499,8.0716718 31.2487499,7.045 C31.2487499,6.1583289 31.0737516,5.44666935 30.7237499,4.91 C30.3737481,4.37333065 29.9129194,3.95916812 29.3412499,3.6675 C28.7695803,3.37583187 28.1279201,3.1833338 27.4162499,3.09 C26.7045796,2.9966662 25.9870868,2.95 25.2637499,2.95 L21.1337499,2.95 L21.1337499,11.14 Z" id="R"></path>
            <path d="M11.61625,0.22 L14.38125,0.22 L24.91625,25 L21.48625,25 L18.96625,18.91 L6.57625,18.91 L4.02125,25 L0.69625,25 L11.61625,0.22 Z M12.94625,4 L12.87625,4 L7.73125,16.18 L17.84625,16.18 L12.94625,4 Z" id="A"></path>
        </g>
    </g>
</svg>