<?xml version="1.0" encoding="UTF-8"?>
<svg viewBox="0 0 56 30" version="1.1" xmlns="http://www.w3.org/2000/svg" xmlns:xlink="http://www.w3.org/1999/xlink">
    <!-- Designed By: Atul Meshram -->
    <g id="Page-1" stroke="none" stroke-width="1" fill="none" fill-rule="evenodd">
        <g id="pano-icon-2" fill="#FFFFFF">
            <polygon id="Shape" fill-rule="nonzero" points="20.08 1 11.84 21 4.24 1 0.88 1 11.72 29.48 23.44 1"></polygon>
            <path d="M22.0667712,11.2303794 C23.1900969,8.52090981 24.282948,5.89506266 25.0833195,3.99403432 C25.8260628,2.22988371 26.3358051,1.10329557 26.3868385,1.10329557 C30.8464241,1.10329557 33.64,5.28879933 33.64,9.52 C33.64,12.8 31.92,15.64 29.16,17.08 L34.56,29 L31.12,29 L26.16,18 C25.72,18.04 25.32,18.08 24.92,18.08 L20.24,18.08 L20.24,29 L17,29 L17,23.5 C17,23.5 18.608804,19.5895977 20.49158,15.0354859 L20.4799805,15.0354859 L22.0667712,11.2303794 Z M22.0667712,11.2303794 C21.539387,12.5024339 21.0052857,13.7929201 20.49158,15.0354859 L24.7907489,15.0354843 C27.91021,15.0899347 30.3123863,12.6914932 30.3647435,9.69195011 C30.4164026,6.73240093 28.2759424,4.26214384 24.9965089,4.20490112 L22.0667712,11.2303794 Z" id="R" fill-rule="nonzero"></path>
            <polygon id="X" points="43.6 12 51.52 0.68 55.12 0.68 45.52 14.12 55.92 29 52.12 29 43.48 16.16 36.0944729 27.031255 34.6353778 24.0657894 41.56 14.12 32 0.68 35.88 0.68"></polygon>
        </g>
    </g>
</svg>