<?xml version="1.0" encoding="UTF-8"?>
<svg viewBox="0 0 2000 2400" version="1.1" xmlns="http://www.w3.org/2000/svg" xmlns:xlink="http://www.w3.org/1999/xlink">
    <g id="Page-1" stroke="none" stroke-width="1" fill="none" fill-rule="evenodd">
        <g id="LDS_Full">
            <rect id="Rectangle" fill="#FFFFFF" fill-rule="nonzero" opacity="0.01" x="0" y="0" width="2000" height="2400"></rect>
            <path d="M505.015385,1500 L483.046154,1500 L483.046154,1495.8 C483.046154,1494.18461 484.553831,1493.3141 487.569231,1493.18846 C490.58463,1493.06282 492.576918,1492.64103 493.546154,1491.92308 C495.807704,1490.23589 497.512815,1487.45387 498.661538,1483.57692 C499.020515,1482.28461 499.361537,1480.48976 499.684615,1478.19231 C500.007694,1477.51025 500.456407,1477.00769 501.030769,1476.68462 C501.605131,1476.36154 502.215381,1476.2 502.861538,1476.2 C503.471798,1476.2 503.983331,1476.32564 504.396154,1476.57692 C504.808976,1476.82821 505.015385,1477.18718 505.015385,1477.65385 L505.015385,1500 Z M473.3,1500.05385 L449.176923,1500.05385 L449.284615,1496.33846 C449.284615,1495.01025 450.325631,1494.07693 452.407692,1493.53846 C454.489754,1493 455.530769,1492.22821 455.530769,1491.22308 L455.530769,1455.73846 C455.530769,1453.5846 454.426934,1452.45385 452.219231,1452.34615 C450.011527,1452.23846 448.907692,1451.62821 448.907692,1450.51538 L448.853846,1446.15385 L479.976923,1446.15385 L479.869231,1450.62308 C479.869231,1451.59231 478.77437,1452.22051 476.584615,1452.50769 C474.394861,1452.79487 473.3,1453.99743 473.3,1456.11538 L473.3,1500.05385 Z M572,1450.13846 C572,1450.71282 570.635911,1451.57435 567.907692,1452.72308 C566.579481,1453.29744 565.915385,1454.01538 565.915385,1454.87692 L565.915385,1478.03077 C565.915385,1484.34875 565.000009,1489.35639 563.169231,1493.05385 C560.871783,1497.72054 557.246179,1500.05385 552.292308,1500.05385 C551.682048,1500.05385 551.188463,1499.7218 550.811538,1499.05769 C550.434614,1498.39359 550.246154,1497.61283 550.246154,1496.71538 C550.246154,1496.06923 550.344871,1495.45898 550.542308,1494.88462 C550.739745,1494.31025 551.035895,1493.87949 551.430769,1493.59231 C554.194886,1493.59231 556.169225,1491.86925 557.353846,1488.42308 C558.215389,1485.91024 558.646154,1482.44618 558.646154,1478.03077 L558.592308,1454.5 C558.592308,1453.49487 557.46155,1452.79487 555.2,1452.4 C552.93845,1452.00513 551.807692,1451.28718 551.807692,1450.24615 L551.753846,1446.15385 L572,1446.26154 L572,1450.13846 Z M542.976923,1494.13077 C543.371797,1494.20256 543.730768,1494.57948 544.053846,1495.26154 C544.376925,1495.94359 544.538462,1496.67948 544.538462,1497.46923 C544.538462,1498.25898 544.358976,1498.89615 544,1499.38077 C543.641024,1499.86539 543.030774,1500.10769 542.169231,1500.10769 C535.815353,1500.10769 530.556431,1499.04873 526.392308,1496.93077 C521.007665,1494.20255 518.315385,1490.05644 518.315385,1484.49231 L518.369231,1456.97692 C518.369231,1455.64871 517.310267,1454.62564 515.192308,1453.90769 C513.074348,1453.18974 512.015385,1452.20257 512.015385,1450.94615 L512.069231,1446.26154 L541.253846,1446.26154 L541.253846,1450.24615 C541.253846,1451.28718 540.383342,1452.28333 538.642308,1453.23462 C536.901273,1454.1859 536.030769,1454.96666 536.030769,1455.57692 L535.923077,1486.10769 C535.923077,1488.58463 536.641018,1490.50512 538.076923,1491.86923 C539.225647,1492.94616 540.858964,1493.7 542.976923,1494.13077 Z M630.853846,1465.53846 C630.853846,1466.14872 630.593592,1466.62436 630.073077,1466.96538 C629.552562,1467.30641 628.951285,1467.47692 628.269231,1467.47692 C626.905121,1467.47692 626.06154,1467.02821 625.738462,1466.13077 C625.415383,1464.87435 625.146155,1463.90513 624.930769,1463.22308 C624.284612,1461.21281 623.638465,1459.66924 622.992308,1458.59231 C621.987174,1456.83332 620.452574,1455.3436 618.388462,1454.12308 C616.324349,1452.90256 614.251292,1452.16667 612.169231,1451.91538 C611.630767,1451.91538 611.208976,1451.64616 610.903846,1451.10769 C610.598716,1450.56923 610.446154,1449.90513 610.446154,1449.11538 C610.446154,1448.28974 610.598716,1447.58975 610.903846,1447.01538 C611.208976,1446.44102 611.630767,1446.15385 612.169231,1446.15385 C614.574371,1446.15385 616.817938,1446.47692 618.9,1447.12308 C621.700014,1447.98462 623.369228,1448.45128 623.907692,1448.52308 C624.374361,1447.69743 625.083329,1447.06026 626.034615,1446.61154 C626.985902,1446.16282 627.946149,1445.93846 628.915385,1445.93846 C630.171801,1445.93846 630.8,1446.35128 630.8,1447.17692 L630.853846,1465.53846 Z M627.192308,1494.34615 C625.612813,1496.17693 624.141032,1497.48718 622.776923,1498.27692 C620.982042,1499.31795 618.792321,1499.83846 616.207692,1499.83846 C615.310252,1499.83846 614.179494,1499.74872 612.815385,1499.56923 C612.420511,1499.60513 612.106411,1499.34487 611.873077,1498.78846 C611.639742,1498.23205 611.523077,1497.55898 611.523077,1496.76923 C611.523077,1495.97948 611.639742,1495.26154 611.873077,1494.61538 C612.106411,1493.96923 612.420511,1493.62821 612.815385,1493.59231 C614.933344,1493.37692 616.665378,1492.91923 618.011538,1492.21923 C619.357699,1491.51923 620.623071,1490.39744 621.807692,1488.85385 C622.633337,1487.77692 623.297433,1486.1436 623.8,1483.95385 C623.94359,1483.23589 624.105127,1482.24872 624.284615,1480.99231 C624.428206,1480.48974 624.948713,1480.06795 625.846154,1479.72692 C626.743594,1479.3859 627.730764,1479.21538 628.807692,1479.21538 C629.59744,1479.21538 630.261536,1479.33205 630.8,1479.56538 C631.338464,1479.79872 631.607692,1480.14872 631.607692,1480.61538 C631.607692,1480.79487 631.589744,1480.93846 631.553846,1481.04615 C631.123075,1483.3795 630.746155,1485.1923 630.423077,1486.48462 C629.417944,1490.39746 628.341031,1493.01794 627.192308,1494.34615 Z M605.115385,1499.62308 C603.751275,1499.83846 602.45898,1499.94615 601.238462,1499.94615 C594.346119,1499.94615 588.728227,1497.03849 584.384615,1491.22308 C580.39998,1485.91023 578.407692,1479.68209 578.407692,1472.53846 C578.407692,1465.78971 580.938436,1459.759 586,1454.44615 C591.205154,1448.98972 597.27176,1446.26154 604.2,1446.26154 C604.666669,1446.26154 605.034614,1446.56666 605.303846,1447.17692 C605.573078,1447.78718 605.707692,1448.48718 605.707692,1449.27692 C605.707692,1450.10257 605.573078,1450.82051 605.303846,1451.43077 C605.034614,1452.04103 604.666669,1452.3641 604.2,1452.4 C601.076907,1453.33334 599.012826,1456.02562 598.007692,1460.47692 C597.469228,1462.88206 597.2,1466.72305 597.2,1472 C597.2,1475.91284 597.307691,1478.91025 597.523077,1480.99231 C597.882053,1484.54617 598.582046,1487.38204 599.623077,1489.5 C600.879493,1492.08463 602.656399,1493.53846 604.953846,1493.86154 C605.456413,1493.82564 605.851281,1494.09487 606.138462,1494.66923 C606.425642,1495.24359 606.569231,1495.92564 606.569231,1496.71538 C606.569231,1497.54103 606.443591,1498.23205 606.192308,1498.78846 C605.941024,1499.34487 605.582054,1499.62308 605.115385,1499.62308 Z M659.984615,1491.49231 C659.984615,1492.46154 661.097425,1493.12564 663.323077,1493.48462 C665.548729,1493.84359 666.661538,1494.72307 666.661538,1496.12308 L666.715385,1500.05385 L635.807692,1500.05385 L635.915385,1496.33846 C635.915385,1495.01025 636.9564,1494.07693 639.038462,1493.53846 C641.120523,1493 642.161538,1492.22821 642.161538,1491.22308 L642.161538,1455.73846 C642.161538,1453.5846 641.057703,1452.45385 638.85,1452.34615 C636.642297,1452.23846 635.538462,1451.62821 635.538462,1450.51538 L635.484615,1446.15385 L666.607692,1446.15385 L666.5,1450.62308 C666.5,1451.59231 665.405139,1452.22051 663.215385,1452.50769 C661.02563,1452.79487 659.930769,1453.99743 659.930769,1456.11538 L659.984615,1491.49231 Z M706.615385,1500.10769 C706.220511,1500.10769 705.906411,1499.82052 705.673077,1499.24615 C705.439742,1498.67179 705.323077,1498.0077 705.323077,1497.25385 C705.323077,1496.57179 705.421794,1495.99744 705.619231,1495.53077 C705.816668,1495.0641 706.09487,1494.83077 706.453846,1494.83077 C709.792324,1494.22051 712.341017,1492.65899 714.1,1490.14615 C715.571802,1488.06409 716.541023,1485.24617 717.007692,1481.69231 C717.294873,1479.53845 717.438462,1476.23592 717.438462,1471.78462 C717.438462,1465.82561 716.882057,1461.6436 715.769231,1459.23846 C714.189736,1455.86409 710.994896,1453.76411 706.184615,1452.93846 C705.753844,1452.97436 705.412822,1452.68718 705.161538,1452.07692 C704.910255,1451.46666 704.784615,1450.74872 704.784615,1449.92308 C704.784615,1448.91794 704.910255,1448.08334 705.161538,1447.41923 C705.412822,1446.75512 705.789741,1446.42308 706.292308,1446.42308 C714.261578,1446.42308 721.153817,1448.48716 726.969231,1452.61538 C733.430802,1457.21028 736.661538,1463.31278 736.661538,1470.92308 C736.661538,1479.82569 734.633354,1486.66408 730.576923,1491.43846 C725.65895,1497.21798 717.67185,1500.10769 706.615385,1500.10769 Z M698.161538,1500.10769 L673.876923,1499.94615 L673.930769,1495.36923 C673.930769,1494.68718 674.855119,1494.11282 676.703846,1493.64615 C678.552573,1493.17948 679.476923,1492.3359 679.476923,1491.11538 L679.530769,1454.23077 C679.530769,1453.26153 678.561548,1452.63333 676.623077,1452.34615 C674.684606,1452.05897 673.715385,1451.52052 673.715385,1450.73077 L673.661538,1446.15385 L698.161538,1446.1 L698.161538,1500.10769 Z M1197.8,1446.20769 L1197.90769,1463.11538 L1192.95385,1463.27692 C1192.41538,1462.88205 1191.98462,1462.18206 1191.66154,1461.17692 C1190.8,1458.4846 1190.31539,1457.06667 1190.20769,1456.92308 C1189.09487,1455.48717 1188.01795,1454.39231 1186.97692,1453.63846 C1185.57692,1452.63333 1184.12308,1452.13077 1182.61538,1452.13077 C1182.04102,1452.23846 1181.60128,1451.96923 1181.29615,1451.32308 C1180.99102,1450.67692 1180.83846,1449.88718 1180.83846,1448.95385 C1180.83846,1448.2 1180.93718,1447.5718 1181.13462,1447.06923 C1181.33205,1446.56666 1181.55641,1446.29744 1181.80769,1446.26154 C1182.05898,1446.22564 1182.23846,1446.20769 1182.34615,1446.20769 L1182.72308,1446.20769 C1183.65641,1446.20769 1184.89486,1446.58461 1186.43846,1447.33846 C1187.98206,1448.09231 1189.11282,1448.46923 1189.83077,1448.46923 C1190.44103,1448.46923 1191.0423,1448.28975 1191.63462,1447.93077 C1192.22693,1447.57179 1192.81025,1446.99744 1193.38462,1446.20769 L1197.8,1446.20769 Z M1200.27692,1479 C1200.49231,1480.14872 1200.6,1481.24358 1200.6,1482.28462 C1200.6,1487.27438 1198.62566,1491.45639 1194.67692,1494.83077 C1190.72819,1498.20515 1185.98977,1499.89231 1180.46154,1499.89231 C1179.99487,1499.9641 1179.62692,1499.67693 1179.35769,1499.03077 C1179.08846,1498.38461 1178.95385,1497.57693 1178.95385,1496.60769 C1178.95385,1495.74615 1179.05256,1495.00129 1179.25,1494.37308 C1179.44744,1493.74487 1179.74359,1493.35898 1180.13846,1493.21538 C1182.86668,1492.9641 1184.93076,1492.35385 1186.33077,1491.38462 C1187.47949,1490.59487 1188.05385,1489.55385 1188.05385,1488.26154 C1188.05385,1485.7846 1186.56412,1483.95385 1183.58462,1482.76923 C1182.50769,1482.33846 1179.55515,1481.62949 1174.72692,1480.64231 C1169.89869,1479.65512 1165.8872,1477.68976 1162.69231,1474.74615 C1159.13844,1471.44357 1157.36154,1467.58464 1157.36154,1463.16923 C1157.36154,1458.64613 1158.96793,1454.68848 1162.18077,1451.29615 C1165.39361,1447.90383 1169.24357,1446.20769 1173.73077,1446.20769 C1174.34103,1446.35128 1174.79872,1446.74615 1175.10385,1447.39231 C1175.40898,1448.03846 1175.56154,1448.77435 1175.56154,1449.6 C1175.56154,1450.35385 1175.4359,1451.01795 1175.18462,1451.59231 C1174.93333,1452.16667 1174.61026,1452.45385 1174.21538,1452.45385 C1172.63589,1452.77692 1171.29872,1453.52179 1170.20385,1454.68846 C1169.10897,1455.85513 1168.56154,1457.12051 1168.56154,1458.48462 C1168.56154,1459.31026 1168.81282,1460.08205 1169.31538,1460.8 C1171.28975,1463.67181 1174.4487,1465.28718 1178.79231,1465.64615 C1184.9308,1466.18462 1188.43076,1466.61538 1189.29231,1466.93846 C1191.91283,1467.8718 1194.24614,1469.46025 1196.29231,1471.70385 C1198.33847,1473.94745 1199.66666,1476.37947 1200.27692,1479 Z M1156.76923,1499.94615 L1156.66154,1482.82308 L1161.61538,1482.87692 C1162.15385,1483.2718 1162.58461,1483.97179 1162.90769,1484.97692 C1163.76924,1487.66924 1164.25385,1489.08718 1164.36154,1489.23077 C1165.47436,1490.66667 1166.55128,1491.76153 1167.59231,1492.51538 C1168.99231,1493.52052 1170.44615,1494.02308 1171.95385,1494.02308 C1172.52821,1493.91538 1172.96795,1494.18461 1173.27308,1494.83077 C1173.57821,1495.47693 1173.73077,1496.26666 1173.73077,1497.2 C1173.73077,1497.95385 1173.63205,1498.58205 1173.43462,1499.08462 C1173.23718,1499.58718 1173.01282,1499.85641 1172.76154,1499.89231 C1172.51026,1499.92821 1172.33077,1499.94615 1172.22308,1499.94615 L1171.84615,1499.94615 C1170.91282,1499.94615 1169.67437,1499.56923 1168.13077,1498.81538 C1166.58717,1498.06153 1165.45641,1497.68462 1164.73846,1497.68462 C1164.1282,1497.68462 1163.52693,1497.8641 1162.93462,1498.22308 C1162.3423,1498.58205 1161.75898,1499.15641 1161.18462,1499.94615 L1156.76923,1499.94615 Z M1268.98462,1446.26154 L1268.93077,1473.07692 C1268.75128,1473.11282 1268.4641,1473.13077 1268.06923,1473.13077 C1266.63333,1473.13077 1265.31411,1472.7 1264.11154,1471.83846 C1262.90897,1470.97692 1262.30769,1469.86411 1262.30769,1468.5 L1262.25385,1457.46154 C1262.25385,1456.42051 1260.74617,1455.00257 1257.73077,1453.20769 C1256.29486,1452.34615 1255.57692,1451.34103 1255.57692,1450.19231 L1255.52308,1446.15385 L1268.98462,1446.26154 Z M1219.66154,1446.15385 L1219.60769,1450.19231 C1219.60769,1451.48462 1218.49488,1452.70512 1216.26923,1453.85385 C1214.04358,1455.00257 1212.93077,1456.20512 1212.93077,1457.46154 L1212.87692,1468.5 C1212.87692,1469.86411 1212.27565,1470.97692 1211.07308,1471.83846 C1209.87051,1472.7 1208.53334,1473.13077 1207.06154,1473.13077 C1206.70256,1473.13077 1206.43333,1473.11282 1206.25385,1473.07692 L1206.2,1446.26154 L1219.66154,1446.15385 Z M1252.83077,1500.05385 L1221.92308,1500.05385 L1222.03077,1496.33846 C1222.03077,1495.01025 1223.07178,1494.07693 1225.15385,1493.53846 C1227.23591,1493 1228.27692,1492.22821 1228.27692,1491.22308 L1228.27692,1446.15385 L1246.04615,1446.15385 L1246.1,1491.49231 C1246.1,1492.46154 1247.21281,1493.12564 1249.43846,1493.48462 C1251.66411,1493.84359 1252.77692,1494.72307 1252.77692,1496.12308 L1252.83077,1500.05385 Z M1336.50769,1450.13846 C1336.50769,1450.71282 1335.1436,1451.57435 1332.41538,1452.72308 C1331.08717,1453.29744 1330.42308,1454.01538 1330.42308,1454.87692 L1330.42308,1478.03077 C1330.42308,1484.34875 1329.5077,1489.35639 1327.67692,1493.05385 C1325.37948,1497.72054 1321.75387,1500.05385 1316.8,1500.05385 C1316.18974,1500.05385 1315.69616,1499.7218 1315.31923,1499.05769 C1314.94231,1498.39359 1314.75385,1497.61283 1314.75385,1496.71538 C1314.75385,1496.06923 1314.85256,1495.45898 1315.05,1494.88462 C1315.24744,1494.31025 1315.54359,1493.87949 1315.93846,1493.59231 C1318.70258,1493.59231 1320.67692,1491.86925 1321.86154,1488.42308 C1322.72308,1485.91024 1323.15385,1482.44618 1323.15385,1478.03077 L1323.1,1454.5 C1323.1,1453.49487 1321.96924,1452.79487 1319.70769,1452.4 C1317.44614,1452.00513 1316.31538,1451.28718 1316.31538,1450.24615 L1316.26154,1446.15385 L1336.50769,1446.26154 L1336.50769,1450.13846 Z M1307.48462,1494.13077 C1307.87949,1494.20256 1308.23846,1494.57948 1308.56154,1495.26154 C1308.88462,1495.94359 1309.04615,1496.67948 1309.04615,1497.46923 C1309.04615,1498.25898 1308.86667,1498.89615 1308.50769,1499.38077 C1308.14872,1499.86539 1307.53847,1500.10769 1306.67692,1500.10769 C1300.32305,1500.10769 1295.06412,1499.04873 1290.9,1496.93077 C1285.51536,1494.20255 1282.82308,1490.05644 1282.82308,1484.49231 L1282.87692,1456.97692 C1282.87692,1455.64871 1281.81796,1454.62564 1279.7,1453.90769 C1277.58204,1453.18974 1276.52308,1452.20257 1276.52308,1450.94615 L1276.57692,1446.26154 L1305.76154,1446.26154 L1305.76154,1450.24615 C1305.76154,1451.28718 1304.89103,1452.28333 1303.15,1453.23462 C1301.40897,1454.1859 1300.53846,1454.96666 1300.53846,1455.57692 L1300.43077,1486.10769 C1300.43077,1488.58463 1301.14871,1490.50512 1302.58462,1491.86923 C1303.73334,1492.94616 1305.36666,1493.7 1307.48462,1494.13077 Z M1377.21538,1500.10769 C1376.82051,1500.10769 1376.50641,1499.82052 1376.27308,1499.24615 C1376.03974,1498.67179 1375.92308,1498.0077 1375.92308,1497.25385 C1375.92308,1496.57179 1376.02179,1495.99744 1376.21923,1495.53077 C1376.41667,1495.0641 1376.69487,1494.83077 1377.05385,1494.83077 C1380.39232,1494.22051 1382.94102,1492.65899 1384.7,1490.14615 C1386.1718,1488.06409 1387.14102,1485.24617 1387.60769,1481.69231 C1387.89487,1479.53845 1388.03846,1476.23592 1388.03846,1471.78462 C1388.03846,1465.82561 1387.48206,1461.6436 1386.36923,1459.23846 C1384.78974,1455.86409 1381.5949,1453.76411 1376.78462,1452.93846 C1376.35384,1452.97436 1376.01282,1452.68718 1375.76154,1452.07692 C1375.51026,1451.46666 1375.38462,1450.74872 1375.38462,1449.92308 C1375.38462,1448.91794 1375.51026,1448.08334 1375.76154,1447.41923 C1376.01282,1446.75512 1376.38974,1446.42308 1376.89231,1446.42308 C1384.86158,1446.42308 1391.75382,1448.48716 1397.56923,1452.61538 C1404.0308,1457.21028 1407.26154,1463.31278 1407.26154,1470.92308 C1407.26154,1479.82569 1405.23335,1486.66408 1401.17692,1491.43846 C1396.25895,1497.21798 1388.27185,1500.10769 1377.21538,1500.10769 Z M1368.76154,1500.10769 L1344.47692,1499.94615 L1344.53077,1495.36923 C1344.53077,1494.68718 1345.45512,1494.11282 1347.30385,1493.64615 C1349.15257,1493.17948 1350.07692,1492.3359 1350.07692,1491.11538 L1350.13077,1454.23077 C1350.13077,1453.26153 1349.16155,1452.63333 1347.22308,1452.34615 C1345.28461,1452.05897 1344.31538,1451.52052 1344.31538,1450.73077 L1344.26154,1446.15385 L1368.76154,1446.1 L1368.76154,1500.10769 Z M1436.5,1491.49231 C1436.5,1492.46154 1437.61281,1493.12564 1439.83846,1493.48462 C1442.06411,1493.84359 1443.17692,1494.72307 1443.17692,1496.12308 L1443.23077,1500.05385 L1412.32308,1500.05385 L1412.43077,1496.33846 C1412.43077,1495.01025 1413.47178,1494.07693 1415.55385,1493.53846 C1417.63591,1493 1418.67692,1492.22821 1418.67692,1491.22308 L1418.67692,1455.73846 C1418.67692,1453.5846 1417.57309,1452.45385 1415.36538,1452.34615 C1413.15768,1452.23846 1412.05385,1451.62821 1412.05385,1450.51538 L1412,1446.15385 L1443.12308,1446.15385 L1443.01538,1450.62308 C1443.01538,1451.59231 1441.92052,1452.22051 1439.73077,1452.50769 C1437.54101,1452.79487 1436.44615,1453.99743 1436.44615,1456.11538 L1436.5,1491.49231 Z M1508.22308,1473.34615 C1508.22308,1480.95645 1505.70131,1487.28331 1500.65769,1492.32692 C1495.61408,1497.37054 1489.52055,1499.89231 1482.37692,1499.89231 C1481.47948,1499.89231 1481.03077,1499.22821 1481.03077,1497.9 C1481.03077,1497.28974 1481.14743,1496.73334 1481.38077,1496.23077 C1481.6141,1495.7282 1481.9282,1495.47692 1482.32308,1495.47692 C1485.62566,1494.72307 1487.85128,1492.5154 1489,1488.85385 C1489.75385,1486.44871 1490.13077,1482.60772 1490.13077,1477.33077 L1490.13077,1473.07692 C1490.13077,1469.37947 1490.05898,1466.68719 1489.91538,1465 C1489.6641,1461.87691 1489.1077,1459.36411 1488.24615,1457.46154 C1487.16923,1455.0564 1485.58975,1453.42308 1483.50769,1452.56154 C1483.04102,1452.56154 1482.65513,1452.22052 1482.35,1451.53846 C1482.04487,1450.85641 1481.89231,1450.04872 1481.89231,1449.11538 C1481.89231,1448.28974 1482.02692,1447.6077 1482.29615,1447.06923 C1482.56539,1446.53077 1482.98718,1446.27949 1483.56154,1446.31538 C1490.31029,1446.31538 1496.10767,1448.97177 1500.95385,1454.28462 C1505.80002,1459.59746 1508.22308,1465.95125 1508.22308,1473.34615 Z M1475.10769,1495.47692 C1475.53846,1495.47692 1475.86154,1495.68333 1476.07692,1496.09615 C1476.29231,1496.50898 1476.4,1497.00256 1476.4,1497.57692 C1476.4,1498.22308 1476.28333,1498.78846 1476.05,1499.27308 C1475.81667,1499.75769 1475.50257,1500 1475.10769,1500 C1467.96407,1500 1461.89746,1497.50515 1456.90769,1492.51538 C1451.77433,1487.38203 1449.20769,1480.99235 1449.20769,1473.34615 C1449.20769,1465.95125 1451.63074,1459.59746 1456.47692,1454.28462 C1461.3231,1448.97177 1467.12048,1446.31538 1473.86923,1446.31538 C1474.44359,1446.31538 1474.93718,1446.68333 1475.35,1447.41923 C1475.76282,1448.15513 1475.96923,1448.98974 1475.96923,1449.92308 C1475.96923,1450.67693 1475.78975,1451.30513 1475.43077,1451.80769 C1475.07179,1452.31026 1474.53334,1452.56154 1473.81538,1452.56154 C1471.08717,1453.27949 1469.23847,1455.37947 1468.26923,1458.86154 C1467.62307,1461.19488 1467.3,1464.6769 1467.3,1469.30769 L1467.3,1477.33077 C1467.3,1483.97183 1467.98204,1488.56665 1469.34615,1491.11538 C1470.60257,1493.44873 1472.52306,1494.90256 1475.10769,1495.47692 Z" id="LS" fill="#222222" fill-rule="nonzero"></path>
            <path d="M795.246154,1500.10769 L770.961538,1499.94615 L771.015385,1495.36923 C771.015385,1494.68718 771.939734,1494.11282 773.788462,1493.64615 C775.637189,1493.17948 776.561538,1492.3359 776.561538,1491.11538 L776.615385,1454.23077 C776.615385,1453.26153 775.646164,1452.63333 773.707692,1452.34615 C771.769221,1452.05897 770.8,1451.52052 770.8,1450.73077 L770.746154,1446.15385 L795.246154,1446.1 L795.246154,1500.10769 Z M905.846154,1492.40769 C906.276925,1492.51539 906.608973,1492.82051 906.842308,1493.32308 C907.075642,1493.82564 907.192308,1494.41795 907.192308,1495.1 C907.192308,1495.85385 907.075642,1496.49102 906.842308,1497.01154 C906.608973,1497.53205 906.241028,1497.8641 905.738462,1498.00769 C904.194864,1498.68975 902.642315,1499.18333 901.080769,1499.48846 C899.519223,1499.79359 897.697446,1499.94615 895.615385,1499.94615 C892.923063,1499.94615 890.87693,1499.67693 889.476923,1499.13846 C887.610247,1498.42051 886.10257,1497.05642 884.953846,1495.04615 C884.199996,1493.75384 883.733334,1492.39873 883.553846,1490.98077 C883.374358,1489.56281 883.284615,1487.84873 883.284615,1485.83846 L883.284615,1484.43846 C883.284615,1481.99742 883.051284,1480.22052 882.584615,1479.10769 C882.117946,1477.99487 881.400005,1477.06154 880.430769,1476.30769 C879.353841,1475.84102 878.025649,1475.4641 876.446154,1475.17692 C874.54358,1474.92564 873.19744,1474.74615 872.407692,1474.63846 C872.012819,1474.63846 871.707693,1474.45 871.492308,1474.07308 C871.276922,1473.69615 871.169231,1473.22052 871.169231,1472.64615 C871.169231,1471.8923 871.339742,1471.22821 871.680769,1470.65385 C872.021797,1470.07948 872.515381,1469.79231 873.161538,1469.79231 C876.356426,1469.79231 878.869222,1469.21795 880.7,1468.06923 C882.997447,1466.63333 884.146154,1464.28207 884.146154,1461.01538 C884.146154,1458.61024 882.871808,1456.52821 880.323077,1454.76923 C878.133322,1453.26153 875.997446,1452.50769 873.915385,1452.50769 C873.448716,1452.50769 873.080771,1452.23846 872.811538,1451.7 C872.542306,1451.16154 872.407692,1450.47949 872.407692,1449.65385 C872.407692,1448.72051 872.587178,1447.9218 872.946154,1447.25769 C873.30513,1446.59359 873.843586,1446.26154 874.561538,1446.26154 L875.746154,1446.26154 C878.761554,1446.15385 880.484613,1446.1 880.915385,1446.1 C882.63847,1446.1 883.876919,1446.15385 884.630769,1446.26154 C889.692333,1446.26154 893.766651,1447.41024 896.853846,1449.70769 C900.156427,1452.14873 901.807692,1455.52306 901.807692,1459.83077 C901.807692,1462.88207 900.820523,1465.44871 898.846154,1467.53077 C897.015375,1469.43334 894.484632,1470.81538 891.253846,1471.67692 C893.15642,1471.89231 894.897428,1472.5564 896.476923,1473.66923 C897.912828,1474.67436 898.998714,1475.85897 899.734615,1477.22308 C900.470517,1478.58719 900.910256,1480.83973 901.053846,1483.98077 C901.197437,1487.12181 901.430768,1489.28461 901.753846,1490.46923 C901.933334,1491.18718 902.417945,1491.72564 903.207692,1492.08462 C903.782054,1492.3359 904.410253,1492.46154 905.092308,1492.46154 L905.630769,1492.46154 C905.666667,1492.46154 905.738461,1492.44359 905.846154,1492.40769 Z M864.6,1446.1 L864.6,1490.95385 C864.6,1492.24616 866.107677,1493.08974 869.123077,1493.48462 C872.138477,1493.87949 873.646154,1494.90256 873.646154,1496.55385 L873.592308,1500.05385 L840.207692,1500 C840.028204,1499.78461 839.902564,1499.54231 839.830769,1499.27308 C839.758974,1499.00384 839.723077,1498.72564 839.723077,1498.43846 C839.723077,1497.8282 839.848717,1497.18205 840.1,1496.5 C840.135898,1496.39231 840.207692,1496.23077 840.315385,1496.01538 C840.315385,1494.86666 841.23076,1494.07693 843.061538,1493.64615 C844.892317,1493.21538 845.807692,1492.58718 845.807692,1491.76154 L845.915385,1454.33846 C845.915385,1453.51282 844.964112,1452.88462 843.061538,1452.45385 C841.158965,1452.02307 840.207692,1451.0718 840.207692,1449.6 L840.315385,1446.1 L864.6,1446.1 Z M955.061538,1481.26154 L951.615385,1481.36923 C950.502559,1481.36923 949.766668,1480.39104 949.407692,1478.43462 C949.048716,1476.4782 948.223083,1475.5 946.930769,1475.5 L943.861538,1475.5 C943.394869,1475.5359 943.044873,1475.30257 942.811538,1474.8 C942.578204,1474.29743 942.461538,1473.61539 942.461538,1472.75385 C942.461538,1471.78461 942.596153,1470.91411 942.865385,1470.14231 C943.134617,1469.37051 943.466665,1468.98462 943.861538,1468.98462 L947.038462,1468.98462 C948.151288,1468.98462 948.797435,1467.9077 948.976923,1465.75385 C949.156411,1463.59999 949.892301,1462.52308 951.184615,1462.52308 L955.061538,1462.52308 L955.061538,1481.26154 Z M967.769231,1500.05385 L945.369231,1500.05385 L945.207692,1494.56154 C945.207692,1493.52051 945.548715,1492.83846 946.230769,1492.51538 C946.912824,1492.19231 947.917942,1492.03077 949.246154,1492.03077 C949.676925,1492.03077 950.125639,1492.03974 950.592308,1492.05769 C951.058977,1492.07564 951.543587,1492.08462 952.046154,1492.08462 C953.087185,1492.08462 954.011534,1492.00385 954.819231,1491.84231 C955.626927,1491.68077 956.335894,1491.34872 956.946154,1490.84615 C958.274366,1489.73333 959.099998,1487.24746 959.423077,1483.38846 C959.746155,1479.52947 960.858965,1477.6 962.761538,1477.6 L967.715385,1477.6 L967.769231,1500.05385 Z M967.769231,1446.1 L967.715385,1467.69231 L962.761538,1467.69231 C960.894862,1467.69231 959.81795,1465.92438 959.530769,1462.38846 C959.243588,1458.85255 958.382058,1456.49231 956.946154,1455.30769 C956.371792,1454.80513 955.680773,1454.47308 954.873077,1454.31154 C954.065381,1454.15 953.087185,1454.06923 951.938462,1454.06923 C951.471793,1454.06923 951.005131,1454.07821 950.538462,1454.09615 C950.071793,1454.1141 949.623079,1454.12308 949.192308,1454.12308 C947.792301,1454.12308 946.841028,1453.99744 946.338462,1453.74615 C945.584612,1453.38718 945.207692,1452.66924 945.207692,1451.59231 L945.369231,1446.1 L967.769231,1446.1 Z M936.7,1446.1 L936.646154,1500.05385 L912.307692,1500 L912.415385,1496.66154 C912.415385,1495.62051 913.357683,1494.77693 915.242308,1494.13077 C917.126933,1493.48461 918.069231,1492.69488 918.069231,1491.76154 L918.069231,1454.33846 C918.069231,1453.47692 917.108984,1452.83077 915.188462,1452.4 C913.267939,1451.96923 912.307692,1451.0359 912.307692,1449.6 L912.415385,1446.1 L936.7,1446.1 Z M1036.1,1495.58462 L1037.06923,1500 L1004.70769,1499.94615 L1005.24615,1495.74615 C1005.35385,1494.84871 1006.43076,1494.22051 1008.47692,1493.86154 C1010.52309,1493.50256 1011.54615,1492.94616 1011.54615,1492.19231 C1011.54615,1491.90513 1011.47436,1491.6 1011.33077,1491.27692 C1011.11538,1490.0564 1010.91795,1489.12308 1010.73846,1488.47692 C1010.1641,1486.46666 1009.44616,1485.19231 1008.58462,1484.65385 C1008.15384,1484.61795 1007.1577,1484.58205 1005.59615,1484.54615 C1004.03461,1484.51026 1003.2359,1484.49231 1003.2,1484.49231 L1000.91154,1484.49231 C1000.31923,1484.49231 999.789746,1484.51026 999.323077,1484.54615 C998.856408,1484.54615 998.497437,1484.30385 998.246154,1483.81923 C997.994871,1483.33461 997.869231,1482.75129 997.869231,1482.06923 C997.869231,1481.42307 997.985896,1480.86667 998.219231,1480.4 C998.452565,1479.93333 998.802562,1479.7 999.269231,1479.7 L1007.56154,1479.80769 L996.469231,1455.9 L1000.13077,1446.20769 L1013.32308,1446.15385 L1030.39231,1490.73846 C1030.75128,1491.6359 1031.45128,1492.33589 1032.49231,1492.83846 C1034.71796,1493.87949 1035.92051,1494.79487 1036.1,1495.58462 Z M995.984615,1469.68462 L988.661538,1488.47692 C988.48205,1488.90769 988.356411,1489.32051 988.284615,1489.71538 C988.21282,1490.11026 988.176923,1490.45128 988.176923,1490.73846 C988.176923,1492.03078 989.244861,1492.9282 991.380769,1493.43077 C993.516677,1493.93334 994.584615,1494.68717 994.584615,1495.69231 L994.853846,1500.10769 L973.8,1499.94615 L973.746154,1496.55385 C973.746154,1495.22563 974.715375,1494.11283 976.653846,1493.21538 C978.915396,1492.17435 980.297433,1491.0436 980.8,1489.82308 L992.592308,1461.60769 C993.023079,1461.89487 993.471793,1462.1641 993.938462,1462.41538 C995.410264,1464.71283 996.146154,1466.83076 996.146154,1468.76923 C996.146154,1469.1641 996.092308,1469.46923 995.984615,1469.68462 Z M1123.70769,1495.96154 L1123.65385,1500 L1094.30769,1500 L1094.30769,1495.74615 C1094.30769,1494.77692 1095.20512,1493.87949 1097,1493.05385 C1098.79488,1492.2282 1099.69231,1491.33077 1099.69231,1490.36154 L1099.69231,1446.15385 L1123.86923,1446.15385 L1123.92308,1450.3 C1123.92308,1451.26924 1122.78334,1452.13077 1120.50385,1452.88462 C1118.22435,1453.63847 1117.08462,1454.58974 1117.08462,1455.73846 L1117.08462,1490.63077 C1117.08462,1491.6718 1118.18845,1492.47051 1120.39615,1493.02692 C1122.60386,1493.58334 1123.70769,1494.56153 1123.70769,1495.96154 Z M803.7,1500.10769 C803.305126,1500.10769 802.991027,1499.82052 802.757692,1499.24615 C802.524358,1498.67179 802.407692,1498.0077 802.407692,1497.25385 C802.407692,1496.57179 802.506409,1495.99744 802.703846,1495.53077 C802.901283,1495.0641 803.179485,1494.83077 803.538462,1494.83077 C806.87694,1494.22051 809.425632,1492.65899 811.184615,1490.14615 C812.656418,1488.06409 813.625639,1485.24617 814.092308,1481.69231 C814.379489,1479.53845 814.523077,1476.23592 814.523077,1471.78462 C814.523077,1465.82561 813.966672,1461.6436 812.853846,1459.23846 C811.274351,1455.86409 808.079511,1453.76411 803.269231,1452.93846 C802.838459,1452.97436 802.497437,1452.68718 802.246154,1452.07692 C801.994871,1451.46666 801.869231,1450.74872 801.869231,1449.92308 C801.869231,1448.91794 801.994871,1448.08334 802.246154,1447.41923 C802.497437,1446.75512 802.874356,1446.42308 803.376923,1446.42308 C811.346194,1446.42308 818.238432,1448.48716 824.053846,1452.61538 C830.515417,1457.21028 833.746154,1463.31278 833.746154,1470.92308 C833.746154,1479.82569 831.717969,1486.66408 827.661538,1491.43846 C822.743565,1497.21798 814.756466,1500.10769 803.7,1500.10769 Z M1090.32308,1466.77692 L1080.14615,1498.92308 C1080.03846,1499.24616 1079.79616,1499.52436 1079.41923,1499.75769 C1079.04231,1499.99103 1078.63846,1500.10769 1078.20769,1500.10769 C1077.45384,1500.10769 1076.93333,1499.80257 1076.64615,1499.19231 L1056.45385,1455.9 C1055.95128,1454.82307 1053.67182,1453.81795 1049.61538,1452.88462 C1047.9282,1452.48974 1047.08462,1451.84359 1047.08462,1450.94615 L1047.19231,1446.15385 L1070.93846,1446.26154 L1081.86923,1469.84615 L1090.26923,1446.15385 L1090.32308,1466.77692 Z M1062.21538,1496.55385 L1062.21538,1500 L1043.36923,1500 L1043.36923,1496.33846 C1043.36923,1495.47692 1044.41025,1494.74103 1046.49231,1494.13077 C1048.57437,1493.52051 1049.61538,1492.58719 1049.61538,1491.33077 L1049.61538,1461.87692 L1055.75385,1472.80769 L1055.75385,1490.9 C1055.75385,1492.01283 1056.83076,1492.9641 1058.98462,1493.75385 C1061.13847,1494.54359 1062.21538,1495.47692 1062.21538,1496.55385 Z" id="D" fill="#FFFFFF" fill-rule="nonzero"></path>
            <polygon id="side_4" fill="#FFFFFF" fill-rule="nonzero" points="752.250226 749.48457 898 936.590609 898 1175.98889 752.250226 1292.31525"></polygon>
            <polygon id="side_3" fill="#FFFFFF" fill-rule="nonzero" points="754.356688 743.797213 1128.29112 834.339086 981.348245 949.585809 900.452357 929.973751"></polygon>
            <polygon id="side_2" fill="#FFFFFF" fill-rule="nonzero" transform="translate(940.436410, 1282.590061) rotate(180.000000) translate(-940.436410, -1282.590061) " points="754.493252 1181.48627 1126.37957 1267.77248 981.400991 1383.69386 899.931894 1365.3033"></polygon>
            <polyline id="Line" stroke="#222222" stroke-width="20" stroke-linecap="square" points="532.060709 546.548894 532.060709 1030.45346 1388.34902 1030.45346 1388.34902 810.690464 1153.07809 810.690464 1153.07809 586.521794 1384.01672 586.521794"></polyline>
            <polyline id="Line" stroke="#222222" stroke-width="20" stroke-linecap="square" points="572.060709 586.719516 572.060709 990.453456 1428.34902 990.453456 1428.34902 770.690464 1193.07809 770.690464 1193.07809 546.521794 1424.01672 546.521794"></polyline>
            <polygon id="side_1" fill="#FFFFFF" fill-rule="nonzero" points="983.227591 955.767191 1129.8061 840.108806 1129.8061 1378.35601 983.227591 1193.147"></polygon>
        </g>
    </g>
</svg>